<svg xmlns="http://www.w3.org/2000/svg" xml:space="preserve" viewBox="0 0 738 341"><path d="M698.97 91.92c-7.57-21.43-21.13-43.38-42.18-53.68-.95-.42-1.87-.83-2.79-1.23-4.87-2.25-9.72-4.14-14.92-5.5-54.98-12.97-112.5 13.66-158.55 40.99-.86.5-1.69 1-2.53 1.5-18.65 11.09-36.77 23.1-53.84 36.52-1.7 1.34-3.41 2.67-5.14 3.99-7.99 6.03-15.9 12.09-23.5 18.62-2.4 2.07-4.82 4.11-7.28 6.11-5.45 4.36-10.61 8.92-15.68 13.71-.91.87-.91.87-1.79 1.72-.58.55-1.14 1.08-1.7 1.62-2.21 2.13-4.31 3.39-7.07 4.72-3.55-4.23-7.18-8.3-11.07-12.21-.93-.92-.93-.92-1.84-1.83-1.33-1.34-2.67-2.67-4-4.01-2.07-2.06-4.13-4.12-6.19-6.19-10.43-10.47-20.99-20.79-32.2-30.43-.76-.65-.76-.65-1.51-1.28-1.78-1.51-3.56-3.02-5.34-4.52-.63-.52-1.23-1.03-1.84-1.54-23.24-19.49-48.18-37.39-75.47-50.77-.86-.42-1.7-.82-2.53-1.23-46.67-22.86-105.95-35.07-153.35-6.98-27.82 17.29-42.32 47.76-50.03 78.46-.21.86-.41 1.69-.62 2.52-3.45 13.69-3.45 13.69-3.22 46.21.01.8.01 1.59.02 2.37.01 2.13.04 4.25.1 6.38 1.78 33.79 16.38 68.95 41.62 91.72.51.45 1 .89 1.49 1.33 10.81 9.84 23.61 16.77 37.47 21.31 9.26 2.76 18.84 3.31 27.53-1.31 2.63-1.4 5.03-2.6 8-3 2 2 2 2 3.85 3.47 6.38 4.58 11.41 6.3 19.21 5.03 6.56-3.35 11.2-7.84 14.15-14.61.84-2.02 1.8-3.95 2.79-5.89.81 1.1 1.65 2.18 2.5 3.25 4.17 4.78 8.09 7.36 14.47 8.09 6.84.2 11.61-.26 16.84-4.97 6.91-7.1 8.56-15.1 8.51-24.83l-.06-2.86c-.02-4.5.08-8.92-.74-13.36-.53-2.31-.53-2.31-.82-4.57-.12-1.05-.12-1.05-.25-2.07-.22-1.86-.22-1.86-.44-3.69 2.11-1.69 3.24-3 6-3 2.29 9.61 4.42 19.09 10.59 27.06 4.48 4.9 9.07 7.41 15.67 8.22 6.48.28 11.28-1.33 16.43-5.4 4.97-6.18 6.79-12.14 6.71-20.03l-.09-2.78c-.03-3.36-.02-6.72-.31-10.06l-1-2c3.3-.55 5.93-1.53 9 0 3.24 2.01 6.4 3.7 10 5 10.18 1.08 18.51-.42 26.89-6.34.64-.49 1.27-.97 1.89-1.45 1.06-.81 1.06-.81 2.1-1.6 1.34-1.02 2.69-2.04 4.04-3.04 7.69-5.65 15.23-11.4 22.47-17.62 2.51-2.17 5.04-4.31 7.6-6.42 4.09-3.33 8.18-6.65 12.18-10.09.96-.83 1.88-1.63 2.81-2.44 3.31 3.21 6.57 6.47 9.72 9.84.64.68 1.25 1.35 1.87 2.01l3.91 4.21c3.73 4.07 7.48 8 11.66 11.62 2.26 1.93 4.4 3.86 6.53 5.94 3.67 3.77 7.34 7.49 11.31 10.94 2.11 1.81 4.2 3.62 6.26 5.48 9.06 8.24 18.37 16.22 27.99 23.82.93.73 1.84 1.43 2.75 2.14 13.69 10.65 27.81 20.73 42.83 29.43 37.97 21.39 82.67 36.82 126.33 24.99 30.61-8.94 54.63-30.62 70.09-58.18.59-1.1 1.17-2.17 1.75-3.23 1.72-3.15 3.41-6.32 5.01-9.53 21.07-43.78 24.39-98.62 8.95-144.57M128 267c-2.58-2.41-4-4.75-5.45-7.98-.44-1.02-.44-1.02-.86-2.02-5.36-12.48-9.43-25.29-12.06-38.62-2.93-16.17-5.4-37.14 4.38-51.38 3.86-3.23 7.05-3.55 12-3 2.26 1.89 3.4 3.64 5 6.19 13.02 28.07 4.66 68.26-3.01 96.81m145-60c-1.9-3.25-2.97-5.75-3.44-9.5.52-4.2 1.66-6.33 4.44-9.5h4c.48 2.72.87 5.26 1 8-.91 4.96-2.11 7.76-6 11m63.9-21.59c-.65.54-1.27 1.07-1.9 1.59-7.72 6.48-15.47 12.91-23.45 19.06-.7.53-1.37 1.05-2.05 1.57-5.11 3.99-10.3 7.32-16.5 9.38-4.97.58-8.58.48-13-2v-2c3.55-3.92 5.1-7.42 6.46-12.45 1.37-6.47 1.05-12.8-2.46-18.55-3.38-2.53-5.29-3-9.5-3-4.08 1.17-6.83 2.74-9.5 6-4.67 7.9-3.56 16.84-1.44 25.38.15.55.29 1.08.44 1.62h-4c-1.42-3.8-2.75-6.67-5.19-9.94-3.76-2.76-3.76-2.76-10.81-2.06-2 1-2 1-3.69 3.62-1.58 4.07-1.48 6.19-.31 10.38 2.33 3.65 2.33 3.65 9.19 5.56 2.61.56 2.61.56 4.81 1.44 1.11 3.32 1.16 5.95 1.19 9.42v2.46c.05 3.06.07 6.08-.19 9.12-1.42 4.91-3.75 7.14-8 10-4.81.8-7.98-.32-12-3-8.1-8.04-10.15-19.35-11.68-30.25-.31-2.34-.61-4.67-.92-7.01-.16-1.15-.32-2.27-.47-3.38-.4-3.05-.4-3.05-.93-5.36-2.25-1.12-2.25-1.12-7 0-1.13 3.77-2.32 7.5-3.95 11.09-1.83 3.43-3.26 5.7-7.05 6.91-2.05-3.47-3.71-5.76-6.81-8.38-3.73-1.9-6.06-2.01-10.19-1.62-3.51 1.17-4.79 2.03-7 5-.45 3.01-.33 5.78.33 8.62.06.1.12.21.19.31.03.05.07.09.1.14-.08-.11.01.02.03.04a4.975 4.975 0 0 0 .78.73l.27.24c.04.03.07.06.11.1 0 0 .18.14.08.07.16.12.31.24.46.37.01.01.03.02.04.03s.02.01.03.02l.02.02c.06.04.11.08.18.11-.03-.01-.06-.03-.09-.04l.01.01c.06.02.11.06.16.09.07.03.14.07.19.13h.11c2.77 1.77 4.89 2.97 8.11 3.73 1.09.16 2.14.31 3.2.46 1.1.16 2.17.32 3.24.48.83.11 1.64.22 2.45.33a84 84 0 0 1 3 12c.71 10.25 1.23 20.31-5 29-2.96 2.48-4.64 2.96-8.5 3.38-3.9-.42-5.51-.86-8.5-3.38-7.52-8.72-8.35-20.7-8.26-31.74.03-1.21.05-2.39.08-3.57.04-3.47.08-6.94.14-10.42.02-.77.03-1.52.05-2.27h-8c-.47 5.53-.94 11.06-1.43 16.59l-.57 6.41c-.79 9.4-.99 19.19-4.16 28.16-2.38 5.23-5.49 7.84-10.84 9.84-2.44-.32-3.99-.99-6.11-2.27-.71-.52-1.39-1.03-2.08-1.54-2.12-1.45-2.12-1.45-3.81-3.19-.87-2.31-1.08-3.64-.51-6.06 7.89-20.66 9.74-43.93 9.76-65.87v-2.13c-.01-14.45-.1-30.35-8.25-42.94-3.54-4.4-6.42-6.05-12-7-5.62-.09-10.64 1.32-15 5-7.94 8.79-9.37 19.92-9.36 31.37l.05 3.56c-.08 27.36 7.41 54.62 20.81 78.45.51.89 1.01 1.75 1.5 2.61-1.29 1.97-1.29 1.97-3 4-3.79 2.3-7.98 3.2-12.38 3.38-17.4-.74-37.25-12.79-48.86-25.37-.6-.68-1.18-1.35-1.76-2.01-14.56-15.79-23.72-34.02-29.4-54.74-.2-.77-.4-1.51-.6-2.26-5.93-22.29-7.01-49.51-1.97-72.13l.97-3.87c5.09-21.39 13.11-41.52 27.56-58.38 21.04-22.66 50.57-32.56 81.23-31.8 1.09.06 2.15.12 3.2.18 51.05 2.84 97.93 29.03 137.84 59.36.73.56 1.44 1.1 2.16 1.64 8.75 6.65 17.17 13.61 25.43 20.86 1.19 1.05 2.38 2.1 3.57 3.14 6.11 5.21 11.86 10.7 17.52 16.39.5.51.99 1 1.48 1.49 6.45 6.48 12.89 12.97 19.22 19.56.71.74 1.4 1.47 2.09 2.19 3.73 3.86 7.18 7.08 8.69 12.38-6.01 5.17-12.04 10.31-18.1 15.41M193 223c-1.98-.27-1.98-.27-4-1l-1-3c1.98.27 1.98.27 4 1zm505-50c-2.97 24.16-9.49 48.01-21.38 69.38-15.15 26.17-37.12 47.84-66.91 56.27-38.76 10.02-78.81-2.37-112.75-21.53-.67-.38-1.32-.75-1.96-1.12-16.64-9.43-32.76-19.95-47.51-32.12-2.36-1.96-4.75-3.87-7.17-5.75-5.37-4.15-10.65-8.32-15.7-12.88-2.08-1.93-4.16-3.85-6.31-5.7-4.39-3.78-8.59-7.7-12.71-11.78l-2.27-2.27c-1.63-1.63-3.27-3.25-4.9-4.88-2.54-2.54-5.07-5.07-7.62-7.6l-5.02-4.99c-1.21-1.21-1.21-1.21-2.41-2.4-5.3-5.25-10.1-10.52-14.4-16.63 3.44-2.99 6.88-5.99 10.27-9.05 11.61-10.53 23.58-20.6 35.81-30.41.66-.53 1.29-1.04 1.93-1.55 9.66-7.77 19.54-15.18 29.66-22.35.8-.56 1.57-1.11 2.34-1.65 18.12-12.83 36.83-24.68 56.62-34.78 2.11-1.07 4.22-2.14 6.31-3.24C551.81 44.78 600.22 28.87 645 43c18.76 7.36 31.71 22.25 40.13 40.12.3.64.58 1.26.87 1.88 12.16 25.91 15.33 56.55 12.4 84.86-.2 1.58-.2 1.58-.4 3.14" style="fill:#fff"/></svg>