<?xml version="1.0" encoding="UTF-8"?>
<svg version="1.1" xmlns="http://www.w3.org/2000/svg" width="496" height="448">
<path d="M0 0 C1.48831242 0.00667405 2.97660807 0.01863442 4.46484375 0.03515625 C5.22345703 0.03966797 5.98207031 0.04417969 6.76367188 0.04882812 C8.64326246 0.06064945 10.52281274 0.07858547 12.40234375 0.09765625 C12.73234375 1.74765625 13.06234375 3.39765625 13.40234375 5.09765625 C9.44234375 5.09765625 5.48234375 5.09765625 1.40234375 5.09765625 C1.73234375 6.41765625 2.06234375 7.73765625 2.40234375 9.09765625 C3.76359375 8.75734375 3.76359375 8.75734375 5.15234375 8.41015625 C8.40234375 8.09765625 8.40234375 8.09765625 10.71484375 9.34765625 C13.74024173 12.48510601 13.67915855 15.88876327 13.625 20.09765625 C13.30022939 23.01489398 12.20934811 24.82216928 10.40234375 27.09765625 C6.69220976 29.57107891 4.79174113 29.48269111 0.40234375 29.09765625 C-2.03515625 27.59765625 -2.03515625 27.59765625 -3.59765625 26.09765625 C-2.93765625 24.77765625 -2.27765625 23.45765625 -1.59765625 22.09765625 C0.71234375 22.42765625 3.02234375 22.75765625 5.40234375 23.09765625 C7.69248028 19.66245145 7.58077348 18.11232525 7.40234375 14.09765625 C2.94734375 15.58265625 2.94734375 15.58265625 -1.59765625 17.09765625 C-5.41363218 13.28168032 -4.71355967 8.09482346 -4.73046875 2.98828125 C-4.48710669 -0.47604926 -3.60329967 0.09780944 0 0 Z " fill="#FFFFFF" transform="translate(325.59765625,13.90234375)"/>
<path d="M0 0 C3.0625 0.4375 3.0625 0.4375 5.3125 2.0625 C9.1605723 7.28488384 9.34568044 11.79793615 8.5390625 18.03515625 C7.70102247 22.25970233 6.22554551 25.27445449 3.1875 28.3125 C0.45910302 29.75694546 -0.89119434 30.0319011 -3.9375 29.4375 C-7.61308069 26.34667078 -9.64815817 24.10798281 -10.17578125 19.23828125 C-10.38400566 12.25728383 -9.08293064 7.10716908 -4.484375 1.7421875 C-2.9375 0.4375 -2.9375 0.4375 0 0 Z M-0.9375 5.4375 C-4.24338654 10.64462601 -5.37122718 14.41065886 -4.58984375 20.5546875 C-4.01709588 22.82109211 -4.01709588 22.82109211 -0.9375 24.4375 C1.87855355 21.86632067 2.95470859 19.96162045 3.23046875 16.0625 C3.23691406 15.19625 3.24335938 14.33 3.25 13.4375 C3.26417969 12.57125 3.27835937 11.705 3.29296875 10.8125 C3.22505938 8.17028463 3.22505938 8.17028463 1.0625 5.4375 C0.4025 5.4375 -0.2575 5.4375 -0.9375 5.4375 Z " fill="#FFFFFF" transform="translate(288.9375,13.5625)"/>
<path d="M0 0 C1.875 1.0625 1.875 1.0625 3 3 C3.61746963 9.08433487 2.11735123 12.46132279 -1 17.4375 C-1.57234375 18.39172852 -1.57234375 18.39172852 -2.15625 19.36523438 C-3.09051499 20.91844992 -4.04338556 22.46044863 -5 24 C-3.72125 24.12375 -2.4425 24.2475 -1.125 24.375 C2.75 24.75 2.75 24.75 5 27 C4.67 28.32 4.34 29.64 4 31 C-1.61 31 -7.22 31 -13 31 C-14 26 -14 26 -12.234375 22.94921875 C-11.41849012 21.8527641 -10.58971391 20.76581418 -9.75 19.6875 C-6.24869978 14.95163339 -3.66784022 10.67065676 -2 5 C-3.36125 6.2684375 -3.36125 6.2684375 -4.75 7.5625 C-7.67025483 10.02603251 -7.67025483 10.02603251 -10.375 9.8125 C-10.91125 9.544375 -11.4475 9.27625 -12 9 C-11.7153924 5.58470886 -11.20339329 4.21501576 -8.8125 1.6875 C-5.50691568 -0.29585059 -3.79052747 -0.5768194 0 0 Z " fill="#FFFFFF" transform="translate(314,13)"/>
<path d="M0 0 C1.99977919 1.52430721 2.90233291 2.35780541 3.28515625 4.875 C2.55657482 11.82847894 -0.3879464 17.09037102 -4 23 C-1.99191536 25.00808464 1.32732107 25.27108756 4 26 C4.33 27.32 4.66 28.64 5 30 C1.24600202 31.2039337 -2.33217412 31.09877617 -6.25 31.0625 C-7.51328125 31.05347656 -8.7765625 31.04445313 -10.078125 31.03515625 C-11.04234375 31.02355469 -12.0065625 31.01195313 -13 31 C-13.765625 28.9296875 -13.765625 28.9296875 -14 26 C-12.67539389 23.52075936 -11.36879531 21.39328157 -9.75 19.125 C-6.55933958 14.54534546 -4.0506262 10.20646004 -2 5 C-3.94999129 5.19471111 -3.94999129 5.19471111 -6 6 C-7.28436734 7.9837767 -7.28436734 7.9837767 -8 10 C-9.32 9.67 -10.64 9.34 -12 9 C-11.7153924 5.58470886 -11.20339329 4.21501576 -8.8125 1.6875 C-5.50691568 -0.29585059 -3.79052747 -0.5768194 0 0 Z " fill="#FFFFFF" transform="translate(272,13)"/>
<path d="M0 0 C0.99 0.33 1.98 0.66 3 1 C3.08756305 4.70818297 3.14058015 8.41609763 3.1875 12.125 C3.21263672 13.17171875 3.23777344 14.2184375 3.26367188 15.296875 C3.31735463 20.95145821 3.28169108 25.15295022 0 30 C-2 32 -2 32 -4.9375 32.3125 C-8 32 -8 32 -9.8125 30.75 C-11.11258722 28.83408198 -11.60856977 27.27029534 -12 25 C-9.6875 24.3125 -9.6875 24.3125 -7 24 C-6.01 24.99 -5.02 25.98 -4 27 C-3.67 23.37 -3.34 19.74 -3 16 C-4.65 16 -6.3 16 -8 16 C-10.32331527 14.41449431 -10.91305182 13.27370933 -11.765625 10.58984375 C-11.92546875 9.71457031 -12.0853125 8.83929688 -12.25 7.9375 C-12.42015625 7.05964844 -12.5903125 6.18179687 -12.765625 5.27734375 C-13 3 -13 3 -12 1 C-10.1875 1.0625 -10.1875 1.0625 -8 2 C-6.25 5.5625 -6.25 5.5625 -5 9 C-4.80664062 8.43410156 -4.61328125 7.86820313 -4.4140625 7.28515625 C-4.15367187 6.55167969 -3.89328125 5.81820313 -3.625 5.0625 C-3.36976563 4.33160156 -3.11453125 3.60070312 -2.8515625 2.84765625 C-2 1 -2 1 0 0 Z " fill="#FFFFFF" transform="translate(241,21)"/>
<path d="M0 0 C0 1.32 0 2.64 0 4 C-1.98 4.99 -1.98 4.99 -4 6 C-3.97905273 6.79172607 -3.95810547 7.58345215 -3.93652344 8.39916992 C-3.85324533 11.99515018 -3.80130109 15.59092736 -3.75 19.1875 C-3.69972656 21.05631836 -3.69972656 21.05631836 -3.6484375 22.96289062 C-3.63554687 24.16494141 -3.62265625 25.36699219 -3.609375 26.60546875 C-3.58842773 27.71043701 -3.56748047 28.81540527 -3.54589844 29.95385742 C-4.10445666 33.70070202 -5.37691093 35.31932357 -8 38 C-10.375 39.125 -10.375 39.125 -13 39 C-16.3125 36.9375 -16.3125 36.9375 -19 34 C-19.375 30.6875 -19.375 30.6875 -19 28 C-17.35 28.33 -15.7 28.66 -14 29 C-13.67 30.32 -13.34 31.64 -13 33 C-12.01 33 -11.02 33 -10 33 C-10 24.09 -10 15.18 -10 6 C-11.32 5.67 -12.64 5.34 -14 5 C-14 3.68 -14 2.36 -14 1 C-12.41913952 0.63495397 -10.83516093 0.28339494 -9.25 -0.0625 C-8.36828125 -0.25972656 -7.4865625 -0.45695313 -6.578125 -0.66015625 C-4.01320972 -0.99825872 -2.42908361 -0.81158635 0 0 Z " fill="#FFFFFF" transform="translate(193,14)"/>
<path d="M0 0 C0.99 0.33 1.98 0.66 3 1 C4.16796875 3.50390625 4.16796875 3.50390625 5.1875 6.5625 C5.53167969 7.57441406 5.87585938 8.58632812 6.23046875 9.62890625 C6.48441406 10.41136719 6.73835937 11.19382812 7 12 C7.20496094 11.30132812 7.40992188 10.60265625 7.62109375 9.8828125 C7.89050781 8.97273438 8.15992188 8.06265625 8.4375 7.125 C8.70433594 6.22007813 8.97117188 5.31515625 9.24609375 4.3828125 C10 2 10 2 11 0 C12.32 0.33 13.64 0.66 15 1 C15.66 5.62 16.32 10.24 17 15 C17.66 15 18.32 15 19 15 C19.13277344 14.15695313 19.26554687 13.31390625 19.40234375 12.4453125 C19.57894531 11.34960938 19.75554687 10.25390625 19.9375 9.125 C20.19853516 7.48917969 20.19853516 7.48917969 20.46484375 5.8203125 C21 3 21 3 22 1 C22.99 1 23.98 1 25 1 C25.46715232 8.16300229 24.01288641 14.98067039 20 21 C17.625 20.75 17.625 20.75 15 20 C12.90137502 17.10189884 13 15.71621139 13 12 C12.34 12 11.68 12 11 12 C10.87625 13.11375 10.7525 14.2275 10.625 15.375 C10 19 10 19 8 21 C5.9699707 20.84106445 5.9699707 20.84106445 4 20 C2.8338217 17.34686943 1.97325587 14.95094294 1.1875 12.1875 C0.95869141 11.46240234 0.72988281 10.73730469 0.49414062 9.99023438 C-0.62571476 6.2471092 -1.17132001 3.72269989 0 0 Z " fill="#FFFFFF" transform="translate(146,75)"/>
<path d="M0 0 C1.32 0 2.64 0 4 0 C5.98 4.29 7.96 8.58 10 13 C13.465 6.565 13.465 6.565 17 0 C17.99 0.33 18.98 0.66 20 1 C20.93854006 8.03905044 21.10808032 14.90272572 21 22 C19.68 22 18.36 22 17 22 C16.505 17.05 16.505 17.05 16 12 C15.4225 13.299375 14.845 14.59875 14.25 15.9375 C13.265625 18.15234375 13.265625 18.15234375 12 20 C10.68 20.33 9.36 20.66 8 21 C6.68 18.03 5.36 15.06 4 12 C3.67 12 3.34 12 3 12 C2.67 14.97 2.34 17.94 2 21 C1.01 21 0.02 21 -1 21 C-1.0270203 18.24993392 -1.04684883 15.50013454 -1.0625 12.75 C-1.07087891 11.97269531 -1.07925781 11.19539063 -1.08789062 10.39453125 C-1.09111328 9.64042969 -1.09433594 8.88632813 -1.09765625 8.109375 C-1.10289307 7.41811523 -1.10812988 6.72685547 -1.11352539 6.01464844 C-0.99437971 3.90026102 -0.57618237 2.03358485 0 0 Z " fill="#FFFFFF" transform="translate(13,74)"/>
<path d="M0 0 C0.99 0.66 1.98 1.32 3 2 C3.44140625 4.49609375 3.44140625 4.49609375 3.5625 7.4375 C3.76180361 12.00118369 3.76180361 12.00118369 6 16 C6.99 16 7.98 16 9 16 C11.20399168 11.44508386 11.58846263 6.97093824 12 2 C13.65 1.67 15.3 1.34 17 1 C17 6.28 17 11.56 17 17 C18.32 17.66 19.64 18.32 21 19 C20.67 19.99 20.34 20.98 20 22 C16.73997977 23.39715153 14.37764739 22.69088242 11 22 C9.64523759 22.07301115 8.291043 22.15708517 6.9375 22.25 C3 22 3 22 0.625 19.9375 C-2.4057599 14.45881864 -3.60132035 9.25373163 -3 3 C-1.5 1.0625 -1.5 1.0625 0 0 Z " fill="#FFFFFF" transform="translate(198,22)"/>
<path d="M0 0 C2.57714635 1.08511425 3.68846389 1.78642136 5.375 4 C5.7734375 6.7421875 5.7734375 6.7421875 5.75 9.875 C5.75773437 10.90367187 5.76546875 11.93234375 5.7734375 12.9921875 C5.28817494 16.65544406 4.00941137 19.36558863 1.375 22 C-1.29558851 22.14115161 -3.94932238 22.04247107 -6.625 22 C-6.955 20.68 -7.285 19.36 -7.625 18 C-6.305 18 -4.985 18 -3.625 18 C-1.40765886 17.3498008 -1.40765886 17.3498008 0.375 16 C1.18028889 13.94999129 1.18028889 13.94999129 1.375 12 C0.7975 12.350625 0.22 12.70125 -0.375 13.0625 C-2.625 14 -2.625 14 -4.8125 13.75 C-6.625 13 -6.625 13 -7.625 11 C-8.17312521 6.88906094 -7.9549817 5.44311828 -5.4375 2.0625 C-2.625 0 -2.625 0 0 0 Z M-1.625 4 C-2.285 4.66 -2.945 5.32 -3.625 6 C-3.295 6.99 -2.965 7.98 -2.625 9 C-1.635 7.68 -0.645 6.36 0.375 5 C-0.285 4.67 -0.945 4.34 -1.625 4 Z " fill="#FFFFFF" transform="translate(115.625,413)"/>
<path d="M0 0 C2.57714635 1.08511425 3.68846389 1.78642136 5.375 4 C5.7734375 6.7421875 5.7734375 6.7421875 5.75 9.875 C5.75773437 10.90367187 5.76546875 11.93234375 5.7734375 12.9921875 C5.28817494 16.65544406 4.00941137 19.36558863 1.375 22 C-1.29558851 22.14115161 -3.94932238 22.04247107 -6.625 22 C-6.955 20.35 -7.285 18.7 -7.625 17 C-6.201875 17.309375 -6.201875 17.309375 -4.75 17.625 C-3.203125 17.810625 -3.203125 17.810625 -1.625 18 C0.5135485 15.8614515 0.80155063 14.86724686 1.375 12 C0.7975 12.350625 0.22 12.70125 -0.375 13.0625 C-2.625 14 -2.625 14 -4.8125 13.75 C-6.625 13 -6.625 13 -7.625 11 C-8.17312521 6.88906094 -7.9549817 5.44311828 -5.4375 2.0625 C-2.625 0 -2.625 0 0 0 Z M-1.625 4 C-2.285 4.66 -2.945 5.32 -3.625 6 C-3.625 6.99 -3.625 7.98 -3.625 9 C-2.635 8.67 -1.645 8.34 -0.625 8 C-0.295 7.01 0.035 6.02 0.375 5 C-0.285 4.67 -0.945 4.34 -1.625 4 Z " fill="#FFFFFF" transform="translate(388.625,275)"/>
<path d="M0 0 C1.36475387 2.72950775 1.06060095 4.96995272 1 8 C1 9.32 1 10.64 1 12 C1.33 12.33 1.66 12.66 2 13 C2.3125 15.375 2.3125 15.375 2 18 C-0.30780656 20.57409193 -1.67397791 20.96739779 -5.125 21.3125 C-8 21 -8 21 -10 19 C-10.20146402 15.306493 -10.17353189 12.52059568 -9 9 C-9.2784375 7.7934375 -9.2784375 7.7934375 -9.5625 6.5625 C-10.07506918 3.5603091 -9.68631518 2.48509605 -8 0 C-5.09660535 -1.45169732 -3.09125158 -0.72348441 0 0 Z M-4 3 C-4.33 4.32 -4.66 5.64 -5 7 C-4.34 6.67 -3.68 6.34 -3 6 C-3.33 5.01 -3.66 4.02 -4 3 Z M-6 13 C-6 14.32 -6 15.64 -6 17 C-4.68 16.34 -3.36 15.68 -2 15 C-3.32 14.34 -4.64 13.68 -6 13 Z " fill="#FFFFFF" transform="translate(323,276)"/>
<path d="M0 0 C1.46861889 2.93723778 1.24793404 5.60592357 1.3125 8.875 C1.34988281 10.10992187 1.38726562 11.34484375 1.42578125 12.6171875 C1 16 1 16 -0.78515625 18.4296875 C-3.88508981 20.627524 -6.29741568 20.28481418 -10 20 C-10.66 18.68 -11.32 17.36 -12 16 C-8.25 14.875 -8.25 14.875 -6 16 C-5.34 15.67 -4.68 15.34 -4 15 C-4 13.68 -4 12.36 -4 11 C-4.78375 11.185625 -5.5675 11.37125 -6.375 11.5625 C-9 12 -9 12 -11 11 C-12.13645703 7.24094982 -12.14923583 5.39547495 -10.75 1.6875 C-7.60601938 -3.14075595 -4.79634524 -1.98109912 0 0 Z M-7 3 C-7.65213292 5.02463255 -7.65213292 5.02463255 -8 7 C-6.68 6.34 -5.36 5.68 -4 5 C-4 4.01 -4 3.02 -4 2 C-5.2236068 1.9254644 -5.2236068 1.9254644 -7 3 Z " fill="#FFFFFF" transform="translate(180,204)"/>
<path d="M0 0 C0.99 0.33 1.98 0.66 3 1 C3 8.26 3 15.52 3 23 C1.68 22.67 0.36 22.34 -1 22 C-2.66718742 22 -4.33425791 22.05559408 -6 22.125 C-9 22 -9 22 -11 20 C-11.3359375 17.50390625 -11.3359375 17.50390625 -11.375 14.5625 C-11.40335938 13.59441406 -11.43171875 12.62632813 -11.4609375 11.62890625 C-11 9 -11 9 -9.1796875 7.1328125 C-6.16624495 5.56668644 -4.21736638 6.19565841 -1 7 C-1.020625 6.030625 -1.04125 5.06125 -1.0625 4.0625 C-1 1 -1 1 0 0 Z M-6 10 C-6.66 10.66 -7.32 11.32 -8 12 C-7.67801034 15.09926819 -7.67801034 15.09926819 -7 18 C-4.9837767 17.28436734 -4.9837767 17.28436734 -3 16 C-2.19471111 13.94999129 -2.19471111 13.94999129 -2 12 C-3.32 11.34 -4.64 10.68 -6 10 Z " fill="#FFFFFF" transform="translate(202,74)"/>
<path d="M0 0 C1.875 1.6875 1.875 1.6875 3 4 C2.6875 6.5625 2.6875 6.5625 2 9 C2 9.99 2 10.98 2 12 C2.33 12.33 2.66 12.66 3 13 C3.375 15.875 3.375 15.875 3 19 C0.875 20.9375 0.875 20.9375 -2 22 C-5.3125 21.6875 -5.3125 21.6875 -8 21 C-8.77380214 16.61512119 -8.99656842 13.31846317 -8 9 C-8.04125 7.96875 -8.0825 6.9375 -8.125 5.875 C-8 3 -8 3 -6.8125 1.125 C-4.31963619 -0.42229478 -2.88032665 -0.50405716 0 0 Z M-4 4 C-3.67 5.32 -3.34 6.64 -3 8 C-2.34 7.01 -1.68 6.02 -1 5 C-1.99 4.67 -2.98 4.34 -4 4 Z M-4 13 C-4.33 14.65 -4.66 16.3 -5 18 C-3.68 17.67 -2.36 17.34 -1 17 C-1.66 15.68 -2.32 14.36 -3 13 C-3.33 13 -3.66 13 -4 13 Z " fill="#FFFFFF" transform="translate(48,414)"/>
<path d="M0 0 C0 0.99 0 1.98 0 3 C-0.969375 3.45375 -1.93875 3.9075 -2.9375 4.375 C-6.07079582 5.65786221 -6.07079582 5.65786221 -7 8 C-4.03 8.495 -4.03 8.495 -1 9 C0.1875 11.6875 0.1875 11.6875 1 15 C-0.11516891 17.38964766 -1.13950458 19.13950458 -3 21 C-6.375 21.375 -6.375 21.375 -10 21 C-12.33720582 18.73583186 -12.95270336 17.11866831 -13.08984375 13.875 C-12.74430477 8.62989554 -11.48096301 5.07769952 -8 1 C-5.04047717 -1.12715703 -3.40733104 -1.21690394 0 0 Z M-7 12 C-7.99 13.485 -7.99 13.485 -9 15 C-8.67 15.66 -8.34 16.32 -8 17 C-6.68 16.67 -5.36 16.34 -4 16 C-4 14.68 -4 13.36 -4 12 C-4.99 12 -5.98 12 -7 12 Z " fill="#FFFFFF" transform="translate(188,274)"/>
<path d="M0 0 C2 3 2 3 1.625 6 C1.41875 6.99 1.2125 7.98 1 9 C1 9.99 1 10.98 1 12 C1.33 12.33 1.66 12.66 2 13 C2.25 15.9375 2.25 15.9375 2 19 C-1.6441774 21.4294516 -3.71241272 21.16179575 -8 21 C-10.39822976 16.48568517 -9.82423825 12.84468925 -9 8 C-8.855625 6.700625 -8.71125 5.40125 -8.5625 4.0625 C-8.376875 3.051875 -8.19125 2.04125 -8 1 C-5.21136993 -0.39431504 -3.07921132 -0.25660094 0 0 Z M-5 4 C-5 4.99 -5 5.98 -5 7 C-4.01 6.67 -3.02 6.34 -2 6 C-2 5.34 -2 4.68 -2 4 C-2.99 4 -3.98 4 -5 4 Z M-5 13 C-5.33 14.32 -5.66 15.64 -6 17 C-5.01 17.495 -5.01 17.495 -4 18 C-3.01 17.01 -2.02 16.02 -1 15 C-2.32 14.34 -3.64 13.68 -5 13 Z " fill="#FFFFFF" transform="translate(110,202)"/>
<path d="M0 0 C0.66 0.66 1.32 1.32 2 2 C1.89467563 4.35224424 1.48551084 6.58582043 1.09375 8.90625 C1.04734375 9.94265625 1.04734375 9.94265625 1 11 C1.66 11.66 2.32 12.32 3 13 C2.80608062 16.03807025 2.4948949 18.2446341 0.8125 20.8125 C-1.74320324 22.48692626 -3.9801106 22.74834255 -7 23 C-7.99 22.67 -8.98 22.34 -10 22 C-10.6875 19.9375 -10.6875 19.9375 -11 18 C-9.88625 18.061875 -8.7725 18.12375 -7.625 18.1875 C-6.42875 18.125625 -5.2325 18.06375 -4 18 C-3.34 17.01 -2.68 16.02 -2 15 C-3.65 14.67 -5.3 14.34 -7 14 C-6.38545304 10.00544473 -4.29353263 7.25533664 -2 4 C-5.12197478 5.3089572 -5.12197478 5.3089572 -7 8 C-8.32 7.67 -9.64 7.34 -11 7 C-8.91791137 0.91389479 -6.42274874 -0.54661691 0 0 Z " fill="#FFFFFF" transform="translate(463,202)"/>
<path d="M0 0 C0.66 0.66 1.32 1.32 2 2 C1.89467563 4.35224424 1.48551084 6.58582043 1.09375 8.90625 C1.04734375 9.94265625 1.04734375 9.94265625 1 11 C1.66 11.66 2.32 12.32 3 13 C2.91714201 16.81146743 2.3970408 18.54457085 -0.125 21.4375 C-3.84261323 23.45794197 -5.96029904 22.95051787 -10 22 C-10.33 21.01 -10.66 20.02 -11 19 C-8.94061515 18.48515379 -6.89460574 17.97892115 -4.8125 17.5625 C-4.214375 17.376875 -3.61625 17.19125 -3 17 C-2.67 16.34 -2.34 15.68 -2 15 C-3.65 14.67 -5.3 14.34 -7 14 C-6.38545304 10.00544473 -4.29353263 7.25533664 -2 4 C-5.12197478 5.3089572 -5.12197478 5.3089572 -7 8 C-8.32 7.67 -9.64 7.34 -11 7 C-8.91791137 0.91389479 -6.42274874 -0.54661691 0 0 Z " fill="#FFFFFF" transform="translate(171,413)"/>
<path d="M0 0 C0.89847656 0.00257813 1.79695313 0.00515625 2.72265625 0.0078125 C3.61855469 0.00523437 4.51445312 0.00265625 5.4375 0 C7.78515625 0.1328125 7.78515625 0.1328125 9.78515625 1.1328125 C9.45515625 2.1228125 9.12515625 3.1128125 8.78515625 4.1328125 C6.14515625 4.1328125 3.50515625 4.1328125 0.78515625 4.1328125 C1.11515625 4.7928125 1.44515625 5.4528125 1.78515625 6.1328125 C2.54828125 6.0296875 3.31140625 5.9265625 4.09765625 5.8203125 C6.78515625 6.1328125 6.78515625 6.1328125 8.66015625 8.1953125 C10.11808002 12.00211346 9.87028394 14.22635283 8.78515625 18.1328125 C6.59947476 20.55267415 5.38988117 21.06082144 2.16015625 21.4453125 C-0.21484375 21.1328125 -0.21484375 21.1328125 -2.21484375 19.1328125 C-2.21484375 18.1428125 -2.21484375 17.1528125 -2.21484375 16.1328125 C-0.23484375 16.1328125 1.74515625 16.1328125 3.78515625 16.1328125 C4.11515625 14.8128125 4.44515625 13.4928125 4.78515625 12.1328125 C3.79515625 12.1328125 2.80515625 12.1328125 1.78515625 12.1328125 C0.46515625 12.1328125 -0.85484375 12.1328125 -2.21484375 12.1328125 C-3.40467435 9.7531513 -3.34834341 8.21795515 -3.33984375 5.5703125 C-3.34371094 4.36181641 -3.34371094 4.36181641 -3.34765625 3.12890625 C-3.15843987 0.28509532 -2.84745071 0.1707466 0 0 Z " fill="#FFFFFF" transform="translate(379.21484375,138.8671875)"/>
<path d="M0 0 C-0.25 1.875 -0.25 1.875 -1 4 C-3 5.125 -3 5.125 -5 6 C-5.33 6.66 -5.66 7.32 -6 8 C-4.824375 8.433125 -4.824375 8.433125 -3.625 8.875 C-1 10 -1 10 1 12 C0.86546607 15.69968311 0.74028572 18.12262434 -1.6875 21 C-4.83642135 22.36169572 -6.74094135 21.92103831 -10 21 C-12.48002593 18.51997407 -12.29694693 17.67167487 -12.3125 14.25 C-12.19430633 8.78945232 -11.06349876 5.06349876 -7.125 1.125 C-4.5785352 -0.22312842 -2.84172382 -0.23681032 0 0 Z M-7 13 C-7.33 14.32 -7.66 15.64 -8 17 C-6.68 17 -5.36 17 -4 17 C-4 15.68 -4 14.36 -4 13 C-4.99 13 -5.98 13 -7 13 Z " fill="#FFFFFF" transform="translate(395,344)"/>
<path d="M0 0 C0.556875 0.226875 1.11375 0.45375 1.6875 0.6875 C0.35417905 4.68746286 -1.8082827 5.52532337 -5.3125 7.6875 C-4.343125 8.161875 -3.37375 8.63625 -2.375 9.125 C0.6875 10.6875 0.6875 10.6875 1.6875 11.6875 C2.08338785 15.25049065 2.11417508 17.06389795 0.0625 20.0625 C-2.99035921 22.15129841 -4.68218224 22.22818562 -8.3125 21.6875 C-10.52258347 20.05078724 -11.22571928 19.14173063 -11.74609375 16.41796875 C-11.75491537 10.67509665 -11.32406843 7.13275151 -7.3125 2.6875 C-3.27389569 -0.44241834 -3.27389569 -0.44241834 0 0 Z M-5.3125 12.6875 C-6.3025 13.1825 -6.3025 13.1825 -7.3125 13.6875 C-6.9825 15.3375 -6.6525 16.9875 -6.3125 18.6875 C-5.3225 18.3575 -4.3325 18.0275 -3.3125 17.6875 C-2.57926204 15.67241642 -2.57926204 15.67241642 -2.3125 13.6875 C-3.3025 13.3575 -4.2925 13.0275 -5.3125 12.6875 Z " fill="#FFFFFF" transform="translate(460.3125,138.3125)"/>
<path d="M0 0 C0.66 0.66 1.32 1.32 2 2 C1.89467563 4.35224424 1.48551084 6.58582043 1.09375 8.90625 C1.04734375 9.94265625 1.04734375 9.94265625 1 11 C1.66 11.66 2.32 12.32 3 13 C2.80882285 15.99510867 2.42426865 18.25129061 0.9375 20.875 C-2.38581729 22.8046681 -5.20761964 22.36117908 -9 22 C-9.66 21.01 -10.32 20.02 -11 19 C-10.67 18.34 -10.34 17.68 -10 17 C-7.69 17 -5.38 17 -3 17 C-2.67 16.34 -2.34 15.68 -2 15 C-4.475 14.01 -4.475 14.01 -7 13 C-5.7508258 9.54074837 -4.32472205 6.85306797 -2 4 C-2.7425 4.495 -3.485 4.99 -4.25 5.5 C-7 7 -7 7 -11 7 C-8.91791137 0.91389479 -6.42274874 -0.54661691 0 0 Z " fill="#FFFFFF" transform="translate(247,136)"/>
<path d="M0 0 C3.96 0 7.92 0 12 0 C12 1.32 12 2.64 12 4 C9.36 4 6.72 4 4 4 C4.33 4.66 4.66 5.32 5 6 C5.94875 5.938125 6.8975 5.87625 7.875 5.8125 C8.90625 5.874375 9.9375 5.93625 11 6 C13.48038907 9.7205836 13.46337203 11.59796571 13 16 C11.4375 18.4375 11.4375 18.4375 9 20 C5.25 20.25 5.25 20.25 2 20 C1.67 18.68 1.34 17.36 1 16 C3.6666419 14.66667905 5.16680303 15.32897967 8 16 C8.33 14.02 8.66 12.04 9 10 C6.69 10.66 4.38 11.32 2 12 C-0.80163026 7.7975546 -0.14489712 4.99895065 0 0 Z " fill="#FFFFFF" transform="translate(312,345)"/>
<path d="M0 0 C1 1 1 1 1.125 3.875 C1 7 1 7 0 10 C0.66 10.66 1.32 11.32 2 12 C1.81898828 15.31854817 1.54976448 17.99748831 -0.0625 20.9375 C-3.27572893 22.69959328 -6.3842174 22.17782537 -10 22 C-10.33 20.35 -10.66 18.7 -11 17 C-9.88625 17.061875 -8.7725 17.12375 -7.625 17.1875 C-6.42875 17.125625 -5.2325 17.06375 -4 17 C-3.34 16.01 -2.68 15.02 -2 14 C-3.65 14 -5.3 14 -7 14 C-6.43454163 10.04179141 -5.19097652 7.3340947 -3 4 C-4.1446875 4.7425 -4.1446875 4.7425 -5.3125 5.5 C-8 7 -8 7 -11 7 C-10.6875 4.625 -10.6875 4.625 -10 2 C-6.34346173 -0.43769218 -4.30999899 -0.23944439 0 0 Z " fill="#FFFFFF" transform="translate(188,343)"/>
<path d="M0 0 C1.60339848 3.11771927 2.18974141 4.39011689 1.125 7.8125 C0.75375 8.534375 0.3825 9.25625 0 10 C0.66 10.66 1.32 11.32 2 12 C2.47086916 15.60999687 2.48572438 17.3343777 0.3125 20.3125 C-2.27522616 22.20084071 -3.80830587 22.84041529 -7 23 C-9.3125 22.0625 -9.3125 22.0625 -11 21 C-11 20.01 -11 19.02 -11 18 C-10.05125 18.020625 -9.1025 18.04125 -8.125 18.0625 C-5.09333717 18.22551826 -5.09333717 18.22551826 -3 17 C-2.67 16.01 -2.34 15.02 -2 14 C-3.65 14 -5.3 14 -7 14 C-6.35455571 10.51460083 -4.89865603 7.97180943 -3 5 C-3.5775 5.309375 -4.155 5.61875 -4.75 5.9375 C-6.84294184 6.92583364 -8.74535275 7.5168613 -11 8 C-10.67842796 5.02545866 -10.37860258 3.40664722 -8.3125 1.1875 C-5.39975854 -0.3082321 -3.23000416 -0.22022756 0 0 Z " fill="#FFFFFF" transform="translate(243,413)"/>
<path d="M0 0 C3.96 0 7.92 0 12 0 C12 1.32 12 2.64 12 4 C9.36 4 6.72 4 4 4 C4 4.66 4 5.32 4 6 C4.94875 5.95875 5.8975 5.9175 6.875 5.875 C10 6 10 6 12 8 C12.32429691 12.02128169 12.51265295 14.79375776 10.9375 18.5 C8.03865362 20.74426817 5.54614524 20.2676336 2 20 C1.67 18.35 1.34 16.7 1 15 C2.98 15 4.96 15 7 15 C7.33 13.35 7.66 11.7 8 10 C5.69 10.66 3.38 11.32 1 12 C0 11 0 11 -0.09765625 8.49609375 C-0.06510417 5.6640625 -0.03255208 2.83203125 0 0 Z " fill="#FFFFFF" transform="translate(108,274)"/>
<path d="M0 0 C3.3125 0.9375 3.3125 0.9375 5.3125 2.9375 C5.5625 5.9375 5.5625 5.9375 5.3125 8.9375 C2.55026722 11.69973278 0.10543383 11.51606291 -3.6875 11.9375 C-3.6875 12.5975 -3.6875 13.2575 -3.6875 13.9375 C-0.2225 13.4425 -0.2225 13.4425 3.3125 12.9375 C2.4375 16.8125 2.4375 16.8125 1.3125 17.9375 C-1.5 18.3125 -1.5 18.3125 -4.6875 17.9375 C-7.182492 15.8364541 -8.4110205 14.21912462 -9.10546875 11 C-9.3850765 7.00992183 -8.90930288 5.26684367 -6.625 1.875 C-3.6875 -0.0625 -3.6875 -0.0625 0 0 Z M-2.6875 3.9375 C-3.6775 5.4225 -3.6775 5.4225 -4.6875 6.9375 C-2.7075 6.9375 -0.7275 6.9375 1.3125 6.9375 C0.9825 5.9475 0.6525 4.9575 0.3125 3.9375 C-0.6775 3.9375 -1.6675 3.9375 -2.6875 3.9375 Z " fill="#FFFFFF" transform="translate(182.6875,80.0625)"/>
<path d="M0 0 C2.20335624 1.82346723 2.88160279 3.24052524 3.3203125 6.0546875 C3.53072133 10.22078238 3.15232 12.68407704 1.3125 16.5 C-1 19 -1 19 -3.5 20.125 C-6 20 -6 20 -8.3125 18.75 C-10.99268883 14.38228487 -10.62820568 9.98869216 -10 5 C-7.66451464 -0.30792128 -5.62554607 -1.78370973 0 0 Z M-4 3 C-6.71573013 7.97545809 -6.71573013 7.97545809 -6.1875 13.4375 C-5.795625 14.283125 -5.40375 15.12875 -5 16 C-2.85420839 14.44098818 -2.85420839 14.44098818 -1 12 C-0.41630557 8.41538144 -0.41630557 8.41538144 -1 5 C-1.99 4.34 -2.98 3.68 -4 3 Z " fill="#FFFFFF" transform="translate(257,203)"/>
<path d="M0 0 C1.6484375 1.19140625 1.6484375 1.19140625 3 3 C3.29296875 5.48046875 3.29296875 5.48046875 3.1875 8.1875 C3.16042969 9.08855469 3.13335937 9.98960938 3.10546875 10.91796875 C3.07066406 11.60503906 3.03585937 12.29210937 3 13 C3.99 13 4.98 13 6 13 C5.34 14.32 4.68 15.64 4 17 C2.68 17 1.36 17 0 17 C-0.66 16.34 -1.32 15.68 -2 15 C-2.78375 15.20625 -3.5675 15.4125 -4.375 15.625 C-7 16 -7 16 -9.3125 14.4375 C-11.48843721 11.29447959 -11.61337601 9.75692803 -11 6 C-7.85028455 1.27542682 -5.73919864 -0.55992182 0 0 Z M-5.75 5.1875 C-7.29839423 7.00671447 -7.29839423 7.00671447 -6.6875 9.6875 C-6.460625 10.450625 -6.23375 11.21375 -6 12 C-3.43750025 9.68767578 -3.43750025 9.68767578 -1 7 C-1 6.01 -1 5.02 -1 4 C-3.9387397 3.71924929 -3.9387397 3.71924929 -5.75 5.1875 Z " fill="#FFFFFF" transform="translate(386,81)"/>
<path d="M0 0 C1.6328125 1.1484375 1.6328125 1.1484375 3 3 C3.84766326 8.36089737 3.76130371 13.38603613 1.4375 18.3125 C-1 20 -1 20 -4.75 19.8125 C-5.8225 19.544375 -6.895 19.27625 -8 19 C-10.0088583 14.85672976 -10.40215934 11.58461644 -10 7 C-7.69964113 1.3536646 -6.22866811 -0.60767494 0 0 Z M-4 4 C-6.09440189 7.40340307 -6.25797575 10.04437178 -6 14 C-5.67 14.66 -5.34 15.32 -5 16 C-3.68 15.34 -2.36 14.68 -1 14 C-1 11.03 -1 8.06 -1 5 C-1.99 4.67 -2.98 4.34 -4 4 Z " fill="#FFFFFF" transform="translate(186,414)"/>
<path d="M0 0 C3.125 0.375 3.125 0.375 5 2.375 C6.94592372 7.56412993 6.65812624 11.6501798 5.0625 16.8125 C3.125 19.375 3.125 19.375 -0.5625 20.25 C-1.655625 20.29125 -2.74875 20.3325 -3.875 20.375 C-7.26150562 16.49574885 -7.31560875 13.77869635 -7.17578125 8.7890625 C-6.5892726 4.08175931 -4.74097331 0.61838782 0 0 Z M-0.875 4.375 C-3.08870051 6.16157757 -3.08870051 6.16157757 -3.0703125 8.5390625 C-3.04710937 9.35117187 -3.02390625 10.16328125 -3 11 C-2.98195313 11.81726563 -2.96390625 12.63453125 -2.9453125 13.4765625 C-2.92210937 14.10304688 -2.89890625 14.72953125 -2.875 15.375 C-1.555 15.375 -0.235 15.375 1.125 15.375 C2.2827506 11.90174819 2.19366652 9.01432552 2.125 5.375 C1.135 5.045 0.145 4.715 -0.875 4.375 Z " fill="#FFFFFF" transform="translate(462.875,275.625)"/>
<path d="M0 0 C2 2 2 2 2.375 4.9375 C2 8 2 8 0.3125 9.875 C-2.33270547 11.16185671 -4.09433826 11.24213848 -7 11 C-6.34 11.66 -5.68 12.32 -5 13 C-2.39719432 12.67958603 -2.39719432 12.67958603 0 12 C-0.875 15.875 -0.875 15.875 -2 17 C-8.22333572 17.57623479 -8.22333572 17.57623479 -10.9375 15.5625 C-12.54414953 11.68763938 -12.65899182 8.12816715 -12 4 C-9.05531891 -1.03049686 -5.29584308 -0.51250094 0 0 Z M-5 3 C-5.99 3.99 -6.98 4.98 -8 6 C-5.03 6.495 -5.03 6.495 -2 7 C-2 6.01 -2 5.02 -2 4 C-2.99 3.67 -3.98 3.34 -5 3 Z " fill="#FFFFFF" transform="translate(131,80)"/>
<path d="M0 0 C0.66 0.66 1.32 1.32 2 2 C1.79142129 8.15307206 0.31982903 11.85961956 -3 17 C-1.02 17.33 0.96 17.66 3 18 C3 19.32 3 20.64 3 22 C-1.29 22 -5.58 22 -10 22 C-9.10223293 17.51116463 -8.28090451 15.42697528 -5.9375 11.6875 C-5.38964844 10.80449219 -4.84179688 9.92148437 -4.27734375 9.01171875 C-3.85582031 8.34785156 -3.43429687 7.68398438 -3 7 C-3.33 6.67 -3.66 6.34 -4 6 C-6.05396726 6.40929986 -6.05396726 6.40929986 -8 7 C-8 3 -8 3 -6.8125 1.25 C-4.39094287 -0.4200394 -2.88306818 -0.36962413 0 0 Z " fill="#FFFFFF" transform="translate(306,344)"/>
<path d="M0 0 C0.99 0 1.98 0 3 0 C4.28923485 3.86770455 4.14505706 7.53437316 4.125 11.5625 C4.12886719 12.34302734 4.13273437 13.12355469 4.13671875 13.92773438 C4.12667749 19.74664502 4.12667749 19.74664502 3 22 C2.01 22 1.02 22 0 22 C-0.33 20.35 -0.66 18.7 -1 17 C-1.94875 17.04125 -2.8975 17.0825 -3.875 17.125 C-7 17 -7 17 -9 15 C-9.1953125 11.9609375 -9.1953125 11.9609375 -9.125 8.375 C-9.10695312 7.18648438 -9.08890625 5.99796875 -9.0703125 4.7734375 C-9.04710937 3.85820312 -9.02390625 2.94296875 -9 2 C-7.68 1.67 -6.36 1.34 -5 1 C-5 4.96 -5 8.92 -5 13 C-3.68 12.67 -2.36 12.34 -1 12 C-0.67 8.04 -0.34 4.08 0 0 Z " fill="#FFFFFF" transform="translate(49,273)"/>
<path d="M0 0 C0.99 0 1.98 0 3 0 C4.28923485 3.86770455 4.14505706 7.53437316 4.125 11.5625 C4.12886719 12.34302734 4.13273437 13.12355469 4.13671875 13.92773438 C4.12667749 19.74664502 4.12667749 19.74664502 3 22 C2.01 22 1.02 22 0 22 C0 20.02 0 18.04 0 16 C-1.11375 16.20625 -2.2275 16.4125 -3.375 16.625 C-4.57125 16.74875 -5.7675 16.8725 -7 17 C-9 15 -9 15 -9.1953125 11.9609375 C-9.17210937 10.77757812 -9.14890625 9.59421875 -9.125 8.375 C-9.10695313 7.18648437 -9.08890625 5.99796875 -9.0703125 4.7734375 C-9.04710937 3.85820312 -9.02390625 2.94296875 -9 2 C-7.68 1.67 -6.36 1.34 -5 1 C-5 4.96 -5 8.92 -5 13 C-3.35 12.67 -1.7 12.34 0 12 C0 8.04 0 4.08 0 0 Z " fill="#FFFFFF" transform="translate(314,137)"/>
<path d="M0 0 C0.928125 0.20625 1.85625 0.4125 2.8125 0.625 C3.73968689 3.70636961 3.95518368 5.24171247 2.81640625 8.30078125 C2.34074219 9.17089844 1.86507812 10.04101562 1.375 10.9375 C0.90191406 11.82050781 0.42882812 12.70351562 -0.05859375 13.61328125 C-0.61740234 14.60908203 -0.61740234 14.60908203 -1.1875 15.625 C0.7925 16.615 2.7725 17.605 4.8125 18.625 C4.8125 19.615 4.8125 20.605 4.8125 21.625 C0.5225 21.625 -3.7675 21.625 -8.1875 21.625 C-8.5175 20.635 -8.8475 19.645 -9.1875 18.625 C-7.75390625 16.03125 -7.75390625 16.03125 -5.75 13.125 C-2.87840326 9.22849804 -2.87840326 9.22849804 -2.1875 4.625 C-2.8475 5.285 -3.5075 5.945 -4.1875 6.625 C-5.1775 6.625 -6.1675 6.625 -7.1875 6.625 C-6.875 4.25 -6.875 4.25 -6.1875 1.625 C-3.1875 -0.375 -3.1875 -0.375 0 0 Z " fill="#FFFFFF" transform="translate(177.1875,137.375)"/>
<path d="M0 0 C0.94875 0.04125 1.8975 0.0825 2.875 0.125 C4.3333668 2.58119671 5.06719551 4.2948446 4.41015625 7.1328125 C3.1792266 10.45203574 1.85003823 13.16244265 -0.125 16.125 C2.35 17.115 2.35 17.115 4.875 18.125 C4.875 19.445 4.875 20.765 4.875 22.125 C0.915 22.125 -3.045 22.125 -7.125 22.125 C-7.455 21.135 -7.785 20.145 -8.125 19.125 C-6.69140625 16.53125 -6.69140625 16.53125 -4.6875 13.625 C-1.81590326 9.72849804 -1.81590326 9.72849804 -1.125 5.125 C-1.785 5.785 -2.445 6.445 -3.125 7.125 C-4.115 7.125 -5.105 7.125 -6.125 7.125 C-5.03177966 0.20127119 -5.03177966 0.20127119 0 0 Z " fill="#FFFFFF" transform="translate(447.125,274.875)"/>
<path d="M0 0 C0.99 0.99 1.98 1.98 3 3 C3.99 2.34 4.98 1.68 6 1 C8.5625 0.75 8.5625 0.75 11 1 C13 3 13 3 13.1953125 6.2578125 C13.16050781 8.17207031 13.16050781 8.17207031 13.125 10.125 C13.10695313 11.40632813 13.08890625 12.68765625 13.0703125 14.0078125 C13.04710937 14.99523437 13.02390625 15.98265625 13 17 C12.01 17.33 11.02 17.66 10 18 C8.99503148 14.98509443 8.89664697 12.95818308 8.9375 9.8125 C8.94652344 8.91144531 8.95554687 8.01039062 8.96484375 7.08203125 C8.97644531 6.39496094 8.98804688 5.70789063 9 5 C6.32098068 7.31881505 5.33795597 9.31814468 4.3125 12.6875 C4.06113281 13.49574219 3.80976563 14.30398437 3.55078125 15.13671875 C3.36902344 15.75160156 3.18726563 16.36648437 3 17 C1.68 16.67 0.36 16.34 -1 16 C-1.02685095 13.52076199 -1.04676547 11.0418116 -1.0625 8.5625 C-1.07506836 7.50192383 -1.07506836 7.50192383 -1.08789062 6.41992188 C-1.09653588 4.61306441 -1.05220011 2.80612397 -1 1 C-0.67 0.67 -0.34 0.34 0 0 Z " fill="#FFFFFF" transform="translate(466,79)"/>
<path d="M0 0 C2.9375 0.1875 2.9375 0.1875 3.9375 1.1875 C4.4935192 7.63732271 3.51573196 10.82015206 -0.0625 16.1875 C2.4125 17.1775 2.4125 17.1775 4.9375 18.1875 C4.9375 19.5075 4.9375 20.8275 4.9375 22.1875 C0.9775 22.1875 -2.9825 22.1875 -7.0625 22.1875 C-7.3925 21.1975 -7.7225 20.2075 -8.0625 19.1875 C-6.62890625 16.59375 -6.62890625 16.59375 -4.625 13.6875 C-1.75340326 9.79099804 -1.75340326 9.79099804 -1.0625 5.1875 C-1.7225 5.8475 -2.3825 6.5075 -3.0625 7.1875 C-4.0525 7.1875 -5.0425 7.1875 -6.0625 7.1875 C-4.9757321 0.30463666 -4.9757321 0.30463666 0 0 Z " fill="#FFFFFF" transform="translate(374.0625,343.8125)"/>
<path d="M0 0 C3.4375 0.1875 3.4375 0.1875 4.4375 1.1875 C5.23010638 7.66045207 3.10063158 11.15069408 -0.5625 16.1875 C1.4175 16.8475 3.3975 17.5075 5.4375 18.1875 C5.4375 19.1775 5.4375 20.1675 5.4375 21.1875 C1.4775 21.5175 -2.4825 21.8475 -6.5625 22.1875 C-7.5625 18.1875 -7.5625 18.1875 -6.41796875 16.00390625 C-5.59232422 14.88822266 -5.59232422 14.88822266 -4.75 13.75 C-2.47975772 10.6493128 -0.87185862 7.80899433 0.4375 4.1875 C0.004375 4.6825 -0.42875 5.1775 -0.875 5.6875 C-2.5625 7.1875 -2.5625 7.1875 -5.5625 7.1875 C-5.6875 4.8125 -5.6875 4.8125 -5.5625 2.1875 C-3.5625 0.1875 -3.5625 0.1875 0 0 Z " fill="#FFFFFF" transform="translate(235.5625,342.8125)"/>
<path d="M0 0 C0.66 0.66 1.32 1.32 2 2 C1.79999637 8.00010901 0.65525569 11.28354104 -3 16 C-1.02 16.66 0.96 17.32 3 18 C3 18.99 3 19.98 3 21 C0.35541621 22.32229189 -1.67761301 22.09677194 -4.625 22.0625 C-5.62789062 22.05347656 -6.63078125 22.04445313 -7.6640625 22.03515625 C-8.43492188 22.02355469 -9.20578125 22.01195312 -10 22 C-9.6402975 17.0840658 -8.1160217 14.4579762 -5.2109375 10.6796875 C-3.70357359 8.58882788 -2.81246743 6.43740228 -2 4 C-2.4125 4.515625 -2.825 5.03125 -3.25 5.5625 C-3.8275 6.036875 -4.405 6.51125 -5 7 C-7.1875 6.6875 -7.1875 6.6875 -9 6 C-7.07216706 0.62960823 -5.78296295 -0.43372222 0 0 Z " fill="#FFFFFF" transform="translate(34,343)"/>
<path d="M0 0 C0.99 0 1.98 0 3 0 C3.33 0.99 3.66 1.98 4 3 C4.5775 2.484375 5.155 1.96875 5.75 1.4375 C8 0 8 0 10.125 0.1875 C12 1 12 1 14 3 C14.1953125 6.2578125 14.1953125 6.2578125 14.125 10.125 C14.10695313 11.40632813 14.08890625 12.68765625 14.0703125 14.0078125 C14.04710938 14.99523437 14.02390625 15.98265625 14 17 C12.68 16.67 11.36 16.34 10 16 C9.67 12.37 9.34 8.74 9 5 C6.53559514 8.8726362 4.74192924 12.76960042 3 17 C2.01 16.67 1.02 16.34 0 16 C0 10.72 0 5.44 0 0 Z " fill="#FFFFFF" transform="translate(53,80)"/>
<path d="M0 0 C1.134375 0.020625 2.26875 0.04125 3.4375 0.0625 C4.83112292 5.6369917 4.21403111 8.44626534 1.4453125 13.4609375 C0.4375 15.0625 0.4375 15.0625 -0.5625 16.0625 C1.4175 16.7225 3.3975 17.3825 5.4375 18.0625 C5.4375 19.0525 5.4375 20.0425 5.4375 21.0625 C1.4775 21.3925 -2.4825 21.7225 -6.5625 22.0625 C-7.69036566 17.55103734 -7.07249951 16.58432991 -4.80664062 12.734375 C-4.22172852 11.78304688 -4.22172852 11.78304688 -3.625 10.8125 C-3.23892578 10.1628125 -2.85285156 9.513125 -2.45507812 8.84375 C-1.50191582 7.24337871 -0.53364076 5.6520258 0.4375 4.0625 C-0.160625 4.578125 -0.75875 5.09375 -1.375 5.625 C-2.096875 6.099375 -2.81875 6.57375 -3.5625 7.0625 C-4.5525 6.7325 -5.5425 6.4025 -6.5625 6.0625 C-4.25951087 0.07472826 -4.25951087 0.07472826 0 0 Z " fill="#FFFFFF" transform="translate(99.5625,412.9375)"/>
<path d="M0 0 C0.99 0.103125 1.98 0.20625 3 0.3125 C5 3.3125 5 3.3125 4.9375 6 C3.71430493 10.3219559 1.52877272 13.63598173 -1 17.3125 C0.98 17.3125 2.96 17.3125 5 17.3125 C5.33 18.6325 5.66 19.9525 6 21.3125 C-0.435 21.8075 -0.435 21.8075 -7 22.3125 C-7.33 21.3225 -7.66 20.3325 -8 19.3125 C-6.6015625 16.75390625 -6.6015625 16.75390625 -4.625 13.875 C-1.54613643 9.42119675 -1.54613643 9.42119675 0 4.3125 C-0.66 4.3125 -1.32 4.3125 -2 4.3125 C-2.33 5.3025 -2.66 6.2925 -3 7.3125 C-3.99 6.9825 -4.98 6.6525 -6 6.3125 C-5.17886899 2.20684495 -4.47585821 0.46623523 0 0 Z " fill="#FFFFFF" transform="translate(168,342.6875)"/>
<path d="M0 0 C0.99 0 1.98 0 3 0 C3 2.64 3 5.28 3 8 C3.556875 7.649375 4.11375 7.29875 4.6875 6.9375 C7.57168632 5.76823527 9.07286212 6.05065798 12 7 C13.38226016 9.76452033 13.09525387 12.0461363 13.0625 15.125 C13.05347656 16.22070312 13.04445312 17.31640625 13.03515625 18.4453125 C13.02355469 19.28835937 13.01195312 20.13140625 13 21 C12.01 21.33 11.02 21.66 10 22 C9.34 18.37 8.68 14.74 8 11 C6.35 14.3 4.7 17.6 3 21 C2.01 21 1.02 21 0 21 C0 14.07 0 7.14 0 0 Z " fill="#FFFFFF" transform="translate(238,75)"/>
<path d="M0 0 C2.5 0.25 2.5 0.25 4.5 2.25 C5.52179238 8.23478394 2.54293427 12.35956993 -0.5 17.25 C1.48 17.58 3.46 17.91 5.5 18.25 C5.5 19.57 5.5 20.89 5.5 22.25 C1.54 22.25 -2.42 22.25 -6.5 22.25 C-7.5 18.25 -7.5 18.25 -6.06640625 15.453125 C-5.40511719 14.47859375 -4.74382813 13.5040625 -4.0625 12.5 C-3.40378906 11.51515625 -2.74507812 10.5303125 -2.06640625 9.515625 C-1.54949219 8.76796875 -1.03257813 8.0203125 -0.5 7.25 C-0.83 6.92 -1.16 6.59 -1.5 6.25 C-3.55396726 6.65929986 -3.55396726 6.65929986 -5.5 7.25 C-4.42513369 0.44251337 -4.42513369 0.44251337 0 0 Z " fill="#FFFFFF" transform="translate(30.5,412.75)"/>
<path d="M0 0 C3.4375 0.1875 3.4375 0.1875 4.4375 1.1875 C5.23010638 7.66045207 3.10063158 11.15069408 -0.5625 16.1875 C1.4175 16.8475 3.3975 17.5075 5.4375 18.1875 C5.4375 19.1775 5.4375 20.1675 5.4375 21.1875 C1.4775 21.5175 -2.4825 21.8475 -6.5625 22.1875 C-7.5625 18.1875 -7.5625 18.1875 -6.1640625 15.49609375 C-5.51179688 14.54863281 -4.85953125 13.60117187 -4.1875 12.625 C-1.44691872 8.62112691 -1.44691872 8.62112691 0.4375 4.1875 C-0.18125 4.6825 -0.8 5.1775 -1.4375 5.6875 C-3.5625 7.1875 -3.5625 7.1875 -5.5625 7.1875 C-5.6875 4.8125 -5.6875 4.8125 -5.5625 2.1875 C-3.5625 0.1875 -3.5625 0.1875 0 0 Z " fill="#FFFFFF" transform="translate(116.5625,342.8125)"/>
<path d="M0 0 C0.66 0.66 1.32 1.32 2 2 C1.77551034 7.72448621 -0.01691715 11.28480453 -3 16 C-1.02 16.66 0.96 17.32 3 18 C3 18.99 3 19.98 3 21 C-0.96 21.33 -4.92 21.66 -9 22 C-10 17 -10 17 -8.78515625 14.6484375 C-8.21667969 13.89820313 -7.64820312 13.14796875 -7.0625 12.375 C-4.458745 9.07767745 -4.458745 9.07767745 -4 5 C-5.98 5.99 -5.98 5.99 -8 7 C-8.6875 5.1875 -8.6875 5.1875 -9 3 C-6.773322 -0.66746964 -3.99110441 -0.42458558 0 0 Z " fill="#FFFFFF" transform="translate(103,343)"/>
<path d="M0 0 C0.66 0.66 1.32 1.32 2 2 C1.79999637 8.00010901 0.65525569 11.28354104 -3 16 C-1.02 16.66 0.96 17.32 3 18 C3 18.99 3 19.98 3 21 C-0.96 21.33 -4.92 21.66 -9 22 C-10.12786566 17.48853734 -9.50999951 16.52182991 -7.24414062 12.671875 C-6.65922852 11.72054687 -6.65922852 11.72054687 -6.0625 10.75 C-5.67642578 10.1003125 -5.29035156 9.450625 -4.89257812 8.78125 C-3.93941582 7.18087871 -2.97114076 5.5895258 -2 4 C-2.598125 4.515625 -3.19625 5.03125 -3.8125 5.5625 C-4.534375 6.036875 -5.25625 6.51125 -6 7 C-6.99 6.67 -7.98 6.34 -9 6 C-7.07216706 0.62960823 -5.78296295 -0.43372222 0 0 Z " fill="#FFFFFF" transform="translate(391,202)"/>
<path d="M0 0 C0.78287497 6.10642479 -1.89174849 10.00459579 -5 15 C-3.02 15.66 -1.04 16.32 1 17 C1 17.99 1 18.98 1 20 C-3.29 20 -7.58 20 -12 20 C-11.10223293 15.51116463 -10.28090451 13.42697528 -7.9375 9.6875 C-7.38964844 8.80449219 -6.84179688 7.92148437 -6.27734375 7.01171875 C-5.85582031 6.34785156 -5.43429687 5.68398438 -5 5 C-5.33 4.67 -5.66 4.34 -6 4 C-7.98 4.99 -7.98 4.99 -10 6 C-10.33 5.01 -10.66 4.02 -11 3 C-7.93877288 -2.2040861 -5.26183297 -2.41759893 0 0 Z " fill="#FFFFFF" transform="translate(451,344)"/>
<path d="M0 0 C0.99 0 1.98 0 3 0 C3.86286752 3.72539628 4.13474793 7.17881325 4.125 11 C4.12757813 12.010625 4.13015625 13.02125 4.1328125 14.0625 C4.00826727 16.81714744 3.62110865 19.31838803 3 22 C2.01 21.67 1.02 21.34 0 21 C0 19.35 0 17.7 0 16 C-0.7425 16.20625 -1.485 16.4125 -2.25 16.625 C-5 17 -5 17 -9 15 C-9 10.71 -9 6.42 -9 2 C-7.68 1.67 -6.36 1.34 -5 1 C-5 4.63 -5 8.26 -5 12 C-3.35 12 -1.7 12 0 12 C0 8.04 0 4.08 0 0 Z " fill="#FFFFFF" transform="translate(253,344)"/>
<path d="M0 0 C4.29 0 8.58 0 13 0 C12.67949202 2.33512959 12.34403308 4.66822025 12 7 C11.87625 7.9075 11.7525 8.815 11.625 9.75 C10.8905827 12.39390228 9.91468615 13.08531385 8 15 C6.86177174 17.29190759 5.94415749 19.61712632 5 22 C4.01 22 3.02 22 2 22 C2.875 14.25 2.875 14.25 4 12 C2.68 11.67 1.36 11.34 0 11 C0.33 10.01 0.66 9.02 1 8 C1.804375 7.87625 2.60875 7.7525 3.4375 7.625 C4.283125 7.41875 5.12875 7.2125 6 7 C6.33 6.34 6.66 5.68 7 5 C4.69 4.67 2.38 4.34 0 4 C0 2.68 0 1.36 0 0 Z " fill="#FFFFFF" transform="translate(33,203)"/>
<path d="M0 0 C3.96 0 7.92 0 12 0 C13.17401582 4.69606329 12.64663286 7.53194358 11 12 C9.5625 13.5625 9.5625 13.5625 8 15 C6.85981052 17.29074433 5.9440565 19.61738122 5 22 C4.01 22 3.02 22 2 22 C1.82057837 18.05272412 1.90649311 15.4019487 4 12 C2.68 11.67 1.36 11.34 0 11 C0.33 10.01 0.66 9.02 1 8 C2.98 8 4.96 8 7 8 C7.33 6.68 7.66 5.36 8 4 C5.36 4 2.72 4 0 4 C0 2.68 0 1.36 0 0 Z " fill="#FFFFFF" transform="translate(241,274)"/>
<path d="M0 0 C1.32 0.66 2.64 1.32 4 2 C4 11.9 4 21.8 4 32 C2.68 32 1.36 32 0 32 C-1.05789035 28.53900719 -1.12912542 25.34661087 -1.1328125 21.73828125 C-1.13410156 20.53751953 -1.13539063 19.33675781 -1.13671875 18.09960938 C-1.13285156 16.84986328 -1.12898437 15.60011719 -1.125 14.3125 C-1.12886719 13.05115234 -1.13273438 11.78980469 -1.13671875 10.49023438 C-1.13542969 9.29333984 -1.13414062 8.09644531 -1.1328125 6.86328125 C-1.13168457 5.76282471 -1.13055664 4.66236816 -1.12939453 3.52856445 C-1 1 -1 1 0 0 Z " fill="#FFFFFF" transform="translate(222,13)"/>
<path d="M0 0 C0.33 1.65 0.66 3.3 1 5 C-0.98 5 -2.96 5 -5 5 C-4.25451764 8.27872996 -4.25451764 8.27872996 -1 9.9375 C2 12 2 12 3.0625 14 C3 16 3 16 1.9375 18.25 C0 20 0 20 -3 20.4375 C-6 20 -6 20 -7.875 18.6875 C-9 17 -9 17 -9 14 C-6.61435923 14.57584432 -4.33317216 15.22227595 -2 16 C-2.391875 15.608125 -2.78375 15.21625 -3.1875 14.8125 C-4.0846875 13.9153125 -4.0846875 13.9153125 -5 13 C-6.36125 11.8553125 -6.36125 11.8553125 -7.75 10.6875 C-10 8 -10 8 -10 4.8125 C-8.1387376 -0.4223005 -4.96587311 -0.22070547 0 0 Z " fill="#FFFFFF" transform="translate(370,77)"/>
<path d="M0 0 C0 1.32 0 2.64 0 4 C-1.65 4 -3.3 4 -5 4 C-5 4.99 -5 5.98 -5 7 C-3.5459375 7.928125 -3.5459375 7.928125 -2.0625 8.875 C1 11 1 11 2 13.5625 C2 16 2 16 0 19 C-1.9453125 19.29296875 -1.9453125 19.29296875 -4.125 19.1875 C-5.40375 19.125625 -6.6825 19.06375 -8 19 C-8.66 17.35 -9.32 15.7 -10 14 C-7.66666667 14 -5.33333333 14 -3 14 C-3.5053125 13.72027344 -4.010625 13.44054687 -4.53125 13.15234375 C-6.57202624 11.89305524 -8.29806046 10.69349319 -10 9 C-10.6875 5.375 -10.6875 5.375 -10 2 C-6.98160349 -1.71494955 -4.37763951 -1.09440988 0 0 Z " fill="#FFFFFF" transform="translate(442,76)"/>
<path d="M0 0 C3.96 0 7.92 0 12 0 C13.06615385 3.19846156 12.95342597 4.30260922 12.25 7.5 C12.01023437 8.66015625 12.01023437 8.66015625 11.765625 9.84375 C10.90171922 12.27679077 9.84923941 13.24535084 8 15 C7.02284391 16.80190614 7.02284391 16.80190614 6.3125 18.6875 C5.6628125 20.3271875 5.6628125 20.3271875 5 22 C4.01 22 3.02 22 2 22 C1.82057837 18.05272412 1.90649311 15.4019487 4 12 C2.68 12 1.36 12 0 12 C0 11.01 0 10.02 0 9 C1.98 8.67 3.96 8.34 6 8 C6.33 7.01 6.66 6.02 7 5 C4.69 4.67 2.38 4.34 0 4 C0 2.68 0 1.36 0 0 Z " fill="#FFFFFF" transform="translate(456,343)"/>
<path d="M0 0 C0.99 0 1.98 0 3 0 C3.33 2.97 3.66 5.94 4 9 C4.99 9.33 5.98 9.66 7 10 C7.66 6.7 8.32 3.4 9 0 C10.32 0.33 11.64 0.66 13 1 C13.06058594 1.67546875 13.12117188 2.3509375 13.18359375 3.046875 C13.26738281 3.93890625 13.35117188 4.8309375 13.4375 5.75 C13.55931641 7.07257813 13.55931641 7.07257813 13.68359375 8.421875 C13.96238465 10.69350452 14.38790577 12.79851823 15 15 C13.06318839 15.08107583 11.1254066 15.13922475 9.1875 15.1875 C8.10855469 15.22230469 7.02960938 15.25710937 5.91796875 15.29296875 C3 15 3 15 1.17578125 13.67578125 C-1.63666094 9.66735035 -1.1508989 5.67786596 -1 1 C-0.67 0.67 -0.34 0.34 0 0 Z " fill="#FFFFFF" transform="translate(101,81)"/>
<path d="M0 0 C3 0.875 3 0.875 4.875 2.4375 C6.49962457 5.9575199 6.82409284 9.07328867 6 12.875 C3.875 15.4375 3.875 15.4375 1 16.875 C-2.72706873 16.72884044 -4.34211707 16.53288293 -7 13.875 C-8.5208761 9.43911138 -7.62877161 6.19124477 -6 1.875 C-3 -0.125 -3 -0.125 0 0 Z M-2 3.875 C-3.61949011 6.44713134 -4.04408751 7.55169159 -3.625 10.625 C-3.41875 11.3675 -3.2125 12.11 -3 12.875 C-1.35 12.545 0.3 12.215 2 11.875 C2 9.895 2 7.915 2 5.875 C0.68 5.215 -0.64 4.555 -2 3.875 Z " fill="#FFFFFF" transform="translate(44,80.125)"/>
<path d="M0 0 C0.99 0 1.98 0 3 0 C3.66 3.3 4.32 6.6 5 10 C5.66 10 6.32 10 7 10 C7.66 7.03 8.32 4.06 9 1 C10.32 0.67 11.64 0.34 13 0 C13 3.63 13 7.26 13 11 C13.66 11 14.32 11 15 11 C15 12.32 15 13.64 15 15 C5.16535874 15.61042601 5.16535874 15.61042601 1.375 13.625 C-0.7152085 9.63460195 -1.0407673 5.47624935 -1 1 C-0.67 0.67 -0.34 0.34 0 0 Z " fill="#FFFFFF" transform="translate(447,81)"/>
<path d="M0 0 C0.99 0 1.98 0 3 0 C3.66 3.3 4.32 6.6 5 10 C5.99 10.33 6.98 10.66 8 11 C8.66 7.37 9.32 3.74 10 0 C10.99 0 11.98 0 13 0 C13.04898437 0.78246094 13.09796875 1.56492187 13.1484375 2.37109375 C13.22320312 3.38300781 13.29796875 4.39492187 13.375 5.4375 C13.44460938 6.44683594 13.51421875 7.45617187 13.5859375 8.49609375 C13.72257812 9.32238281 13.85921875 10.14867188 14 11 C14.66 11.33 15.32 11.66 16 12 C15.67 12.99 15.34 13.98 15 15 C13.22950311 15.05410687 11.45853151 15.09284119 9.6875 15.125 C8.20830078 15.15980469 8.20830078 15.15980469 6.69921875 15.1953125 C4 15 4 15 1 13 C-0.00496852 9.98509443 -0.10335303 7.95818308 -0.0625 4.8125 C-0.05347656 3.91144531 -0.04445312 3.01039062 -0.03515625 2.08203125 C-0.02355469 1.39496094 -0.01195312 0.70789063 0 0 Z " fill="#FFFFFF" transform="translate(254,82)"/>
<path d="M0 0 C0.99 0.33 1.98 0.66 3 1 C3.02698422 3.43757413 3.04683099 5.87484915 3.0625 8.3125 C3.07087891 9.00279297 3.07925781 9.69308594 3.08789062 10.40429688 C3.10307906 13.5483025 3.00193327 15.99420019 2 19 C3.32 19.66 4.64 20.32 6 21 C5.67 21.66 5.34 22.32 5 23 C2.35139573 23.59355614 -0.29197322 23.74209269 -3 24 C-3.66 23.01 -4.32 22.02 -5 21 C-4.01 20.67 -3.02 20.34 -2 20 C-2 16.04 -2 12.08 -2 8 C-2.99 7.67 -3.98 7.34 -5 7 C-4.6189482 4.23737447 -4.16402868 3.15856106 -2.125 1.1875 C-1.42375 0.795625 -0.7225 0.40375 0 0 Z " fill="#FFFFFF" transform="translate(32,272)"/>
<path d="M0 0 C2.10546875 0.42578125 2.10546875 0.42578125 4 1 C4.02717692 3.06242617 4.0464758 5.12495703 4.0625 7.1875 C4.07410156 8.33605469 4.08570313 9.48460937 4.09765625 10.66796875 C4.01192832 13.59300586 3.67849023 16.16316291 3 19 C4.32 19.33 5.64 19.66 7 20 C7 20.66 7 21.32 7 22 C3.78548731 23.60725635 0.56387464 23.05748185 -3 23 C-3 21.68 -3 20.36 -3 19 C-2.34 19 -1.68 19 -1 19 C-0.67 15.04 -0.34 11.08 0 7 C-1.32 7 -2.64 7 -4 7 C-3.59316505 4.64035727 -3.10185661 3.14065912 -1.6875 1.1875 C-1.130625 0.795625 -0.57375 0.40375 0 0 Z " fill="#FFFFFF" transform="translate(166,274)"/>
<path d="M0 0 C0.99 0.33 1.98 0.66 3 1 C3 7.27 3 13.54 3 20 C3.99 20.33 4.98 20.66 6 21 C6 21.66 6 22.32 6 23 C3.03 23.33 0.06 23.66 -3 24 C-3.33 22.68 -3.66 21.36 -4 20 C-3.01 20 -2.02 20 -1 20 C-1.33 16.04 -1.66 12.08 -2 8 C-2.99 7.67 -3.98 7.34 -5 7 C-3.70700306 4.11562221 -2.34058637 2.12780579 0 0 Z " fill="#FFFFFF" transform="translate(99,273)"/>
<path d="M0 0 C1.32 0 2.64 0 4 0 C4 6.27 4 12.54 4 19 C4.99 19.33 5.98 19.66 7 20 C7 20.66 7 21.32 7 22 C3.78548731 23.60725635 0.56387464 23.05748185 -3 23 C-2.67 21.68 -2.34 20.36 -2 19 C-1.34 19 -0.68 19 0 19 C0 15.04 0 11.08 0 7 C-1.32 6.67 -2.64 6.34 -4 6 C-2.84826645 3.53199953 -1.95216435 1.95216435 0 0 Z " fill="#FFFFFF" transform="translate(318,202)"/>
<path d="M0 0 C1.32 0 2.64 0 4 0 C4 6.27 4 12.54 4 19 C4.99 19.33 5.98 19.66 7 20 C7 20.66 7 21.32 7 22 C3.78548731 23.60725635 0.56387464 23.05748185 -3 23 C-2.67 21.68 -2.34 20.36 -2 19 C-1.34 19 -0.68 19 0 19 C0 15.04 0 11.08 0 7 C-1.32 6.67 -2.64 6.34 -4 6 C-2.84826645 3.53199953 -1.95216435 1.95216435 0 0 Z " fill="#FFFFFF" transform="translate(305,202)"/>
<path d="M0 0 C0.70125 0.01417969 1.4025 0.02835937 2.125 0.04296875 C3.176875 0.05263672 3.176875 0.05263672 4.25 0.0625 C6.125 0.23046875 6.125 0.23046875 8.125 1.23046875 C8.125 2.22046875 8.125 3.21046875 8.125 4.23046875 C5.485 4.56046875 2.845 4.89046875 0.125 5.23046875 C-0.205 6.88046875 -0.535 8.53046875 -0.875 10.23046875 C1.765 10.23046875 4.405 10.23046875 7.125 10.23046875 C7.125 11.22046875 7.125 12.21046875 7.125 13.23046875 C4.815 13.56046875 2.505 13.89046875 0.125 14.23046875 C-0.205 16.54046875 -0.535 18.85046875 -0.875 21.23046875 C-1.865 21.23046875 -2.855 21.23046875 -3.875 21.23046875 C-3.93291844 18.10554624 -3.96856746 14.98076109 -4 11.85546875 C-4.01675781 10.96601562 -4.03351563 10.0765625 -4.05078125 9.16015625 C-4.05722656 8.309375 -4.06367188 7.45859375 -4.0703125 6.58203125 C-4.08078613 5.79650879 -4.09125977 5.01098633 -4.10205078 4.20166016 C-3.78232704 1.42590803 -2.7954351 0.34360556 0 0 Z " fill="#FFFFFF" transform="translate(297.875,75.76953125)"/>
<path d="M0 0 C1.32 0.33 2.64 0.66 4 1 C4 6.94 4 12.88 4 19 C4.66 19.33 5.32 19.66 6 20 C6 20.99 6 21.98 6 23 C3.03 23 0.06 23 -3 23 C-3 22.01 -3 21.02 -3 20 C-2.34 20 -1.68 20 -1 20 C-1 16.04 -1 12.08 -1 8 C-1.99 7.67 -2.98 7.34 -4 7 C-3.59316505 4.64035727 -3.10185661 3.14065912 -1.6875 1.1875 C-1.130625 0.795625 -0.57375 0.40375 0 0 Z " fill="#FFFFFF" transform="translate(252,413)"/>
<path d="M0 0 C0.99 0.33 1.98 0.66 3 1 C3.33 6.94 3.66 12.88 4 19 C4.66 19.33 5.32 19.66 6 20 C5.67 20.99 5.34 21.98 5 23 C2.03 23 -0.94 23 -4 23 C-4 22.01 -4 21.02 -4 20 C-3.01 20 -2.02 20 -1 20 C-1.33 16.04 -1.66 12.08 -2 8 C-2.99 7.67 -3.98 7.34 -5 7 C-4.6189482 4.23737447 -4.16402868 3.15856106 -2.125 1.1875 C-1.42375 0.795625 -0.7225 0.40375 0 0 Z " fill="#FFFFFF" transform="translate(45,343)"/>
<path d="M0 0 C2.68655265 5.3731053 0.99998243 13.25010101 0 19 C0.99 19.33 1.98 19.66 3 20 C3 20.99 3 21.98 3 23 C-0.3 23 -3.6 23 -7 23 C-7 22.01 -7 21.02 -7 20 C-6.01 20 -5.02 20 -4 20 C-4.020625 18.783125 -4.04125 17.56625 -4.0625 16.3125 C-4.06824116 13.08022678 -3.78766315 10.15065259 -3 7 C-4.32 7 -5.64 7 -7 7 C-6.22006468 2.47637516 -4.81844319 0 0 0 Z " fill="#FFFFFF" transform="translate(375,275)"/>
<path d="M0 0 C0.99 0.33 1.98 0.66 3 1 C2.94779297 2.91425781 2.94779297 2.91425781 2.89453125 4.8671875 C2.86639769 6.53644521 2.83909707 8.2057171 2.8125 9.875 C2.78736328 10.71675781 2.76222656 11.55851562 2.73632812 12.42578125 C2.72666016 13.23144531 2.71699219 14.03710938 2.70703125 14.8671875 C2.6913208 15.61081543 2.67561035 16.35444336 2.65942383 17.12060547 C2.77181396 17.74080566 2.8842041 18.36100586 3 19 C3.99 19.66 4.98 20.32 6 21 C6 21.66 6 22.32 6 23 C3.03 23.33 0.06 23.66 -3 24 C-3.33 22.68 -3.66 21.36 -4 20 C-3.01 20 -2.02 20 -1 20 C-1.33 16.04 -1.66 12.08 -2 8 C-2.99 7.67 -3.98 7.34 -5 7 C-3.70700306 4.11562221 -2.34058637 2.12780579 0 0 Z " fill="#FFFFFF" transform="translate(232,273)"/>
<path d="M0 0 C0.99 0.33 1.98 0.66 3 1 C3 7.27 3 13.54 3 20 C3.99 20 4.98 20 6 20 C5.67 20.99 5.34 21.98 5 23 C1.04 23.495 1.04 23.495 -3 24 C-3.33 22.68 -3.66 21.36 -4 20 C-3.01 20 -2.02 20 -1 20 C-1.33 16.04 -1.66 12.08 -2 8 C-2.99 7.67 -3.98 7.34 -5 7 C-3.70700306 4.11562221 -2.34058637 2.12780579 0 0 Z " fill="#FFFFFF" transform="translate(444,202)"/>
<path d="M0 0 C1.66413655 3.3282731 0.81867406 6.99733973 0.5625 10.625 C0.51029297 11.42679687 0.45808594 12.22859375 0.40429688 13.0546875 C0.27451629 15.03679103 0.13790265 17.01844499 0 19 C0.99 19 1.98 19 3 19 C2.67 20.32 2.34 21.64 2 23 C-0.64 23 -3.28 23 -6 23 C-6 21.68 -6 20.36 -6 19 C-5.34 19 -4.68 19 -4 19 C-4 15.04 -4 11.08 -4 7 C-4.99 7 -5.98 7 -7 7 C-6.22006468 2.47637516 -4.81844319 0 0 0 Z " fill="#FFFFFF" transform="translate(307,275)"/>
<path d="M0 0 C0.99 0.33 1.98 0.66 3 1 C3 6.94 3 12.88 3 19 C3.99 19.33 4.98 19.66 6 20 C5.67 20.99 5.34 21.98 5 23 C2.03 23 -0.94 23 -4 23 C-4 22.01 -4 21.02 -4 20 C-3.01 20 -2.02 20 -1 20 C-1.33 16.04 -1.66 12.08 -2 8 C-2.66 8 -3.32 8 -4 8 C-4.33 7.01 -4.66 6.02 -5 5 C-3.35 3.35 -1.7 1.7 0 0 Z " fill="#FFFFFF" transform="translate(107,133)"/>
<path d="M0 0 C0.33 6.27 0.66 12.54 1 19 C1.66 19.33 2.32 19.66 3 20 C2.67 20.99 2.34 21.98 2 23 C-0.97 23 -3.94 23 -7 23 C-7 22.01 -7 21.02 -7 20 C-6.01 20 -5.02 20 -4 20 C-4 15.71 -4 11.42 -4 7 C-5.32 6.67 -6.64 6.34 -8 6 C-4.61538462 0 -4.61538462 0 0 0 Z " fill="#FFFFFF" transform="translate(375,202)"/>
<path d="M0 0 C4.95 0 9.9 0 15 0 C15 1.32 15 2.64 15 4 C13.35 4.33 11.7 4.66 10 5 C9.67 9.62 9.34 14.24 9 19 C7.68 19 6.36 19 5 19 C5 14.38 5 9.76 5 5 C3.02 4.34 1.04 3.68 -1 3 C-0.67 2.01 -0.34 1.02 0 0 Z " fill="#FFFFFF" transform="translate(82,75)"/>
<path d="M0 0 C0 6.27 0 12.54 0 19 C0.99 19.33 1.98 19.66 3 20 C3 20.99 3 21.98 3 23 C-0.3 23 -3.6 23 -7 23 C-7 22.01 -7 21.02 -7 20 C-6.01 20 -5.02 20 -4 20 C-4.01160156 19.31292969 -4.02320313 18.62585938 -4.03515625 17.91796875 C-4.04417969 17.01691406 -4.05320313 16.11585938 -4.0625 15.1875 C-4.07410156 14.29417969 -4.08570313 13.40085938 -4.09765625 12.48046875 C-4 10 -4 10 -3 7 C-4.32 7 -5.64 7 -7 7 C-6.22006468 2.47637516 -4.81844319 0 0 0 Z " fill="#FFFFFF" transform="translate(241,202)"/>
<path d="M0 0 C0.99 0 1.98 0 3 0 C3 1.65 3 3.3 3 5 C4.32 5 5.64 5 7 5 C7 5.99 7 6.98 7 8 C5.68 8.33 4.36 8.66 3 9 C3.26676204 10.98491642 3.26676204 10.98491642 4 13 C4.99 13.33 5.98 13.66 7 14 C6.67 15.65 6.34 17.3 6 19 C3.625 18.8125 3.625 18.8125 1 18 C-0.86007925 14.72271751 -1 12.8340246 -1 9 C-1.99 9 -2.98 9 -4 9 C-3.67 7.68 -3.34 6.36 -3 5 C-2.34 5 -1.68 5 -1 5 C-0.67 3.35 -0.34 1.7 0 0 Z " fill="#FFFFFF" transform="translate(398,77)"/>
<path d="M0 0 C0 0.99 0 1.98 0 3 C-1.98 3 -3.96 3 -6 3 C-6 7.95 -6 12.9 -6 18 C-7.32 18 -8.64 18 -10 18 C-10 13.05 -10 8.1 -10 3 C-11.98 3 -13.96 3 -16 3 C-16 2.01 -16 1.02 -16 0 C-10.39436958 -0.82622671 -5.57710648 -1.06795656 0 0 Z " fill="#FFFFFF" transform="translate(235,77)"/>
<path d="M0 0 C0.99 0 1.98 0 3 0 C3.33 0.66 3.66 1.32 4 2 C4.33 1.67 4.66 1.34 5 1 C6.66617115 0.95936168 8.33388095 0.957279 10 1 C10 1.99 10 2.98 10 4 C9.071875 4.8353125 9.071875 4.8353125 8.125 5.6875 C5.15529451 8.91923833 4.8546617 11.72669151 4 16 C3.01 16 2.02 16 1 16 C-0.74511597 10.76465209 -1.2857653 6.52479577 -1 1 C-0.67 0.67 -0.34 0.34 0 0 Z " fill="#FFFFFF" transform="translate(309,81)"/>
<path d="M0 0 C0.99 0 1.98 0 3 0 C3 4.62 3 9.24 3 14 C2.01 14 1.02 14 0 14 C-1.10424872 9.58300512 -1.15088074 5.52642225 -1 1 C-0.67 0.67 -0.34 0.34 0 0 Z " fill="#FFFFFF" transform="translate(322,82)"/>
<path d="M0 0 C0.99 0 1.98 0 3 0 C3 1.32 3 2.64 3 4 C2.01 4 1.02 4 0 4 C0 2.68 0 1.36 0 0 Z " fill="#FFFFFF" transform="translate(322,76)"/>
</svg>
