<?xml version="1.0" encoding="utf-8"?>
<!-- Generator: Adobe Illustrator 27.9.0, SVG Export Plug-In . SVG Version: 6.00 Build 0)  -->
<svg version="1.1" id="Слой_1" xmlns="http://www.w3.org/2000/svg" xmlns:xlink="http://www.w3.org/1999/xlink" x="0px" y="0px"
	 viewBox="0 0 738 341" style="enable-background:new 0 0 738 341;" xml:space="preserve">
<style type="text/css">
	.st0{fill:#FFFFFF;}
</style>
<path class="st0" d="M698.97,91.92c-7.57-21.43-21.13-43.38-42.18-53.68c-0.95-0.42-1.87-0.83-2.79-1.23
	c-4.87-2.25-9.72-4.14-14.92-5.5c-54.98-12.97-112.5,13.66-158.55,40.99C479.67,73,478.84,73.5,478,74
	c-18.65,11.09-36.77,23.1-53.84,36.52c-1.7,1.34-3.41,2.67-5.14,3.99c-7.99,6.03-15.9,12.09-23.5,18.62
	c-2.4,2.07-4.82,4.11-7.28,6.11c-5.45,4.36-10.61,8.92-15.68,13.71c-0.91,0.87-0.91,0.87-1.79,1.72c-0.58,0.55-1.14,1.08-1.7,1.62
	c-2.21,2.13-4.31,3.39-7.07,4.72c-3.55-4.23-7.18-8.3-11.07-12.21c-0.93-0.92-0.93-0.92-1.84-1.83c-1.33-1.34-2.67-2.67-4-4.01
	c-2.07-2.06-4.13-4.12-6.19-6.19c-10.43-10.47-20.99-20.79-32.2-30.43c-0.76-0.65-0.76-0.65-1.51-1.28
	c-1.78-1.51-3.56-3.02-5.34-4.52c-0.63-0.52-1.23-1.03-1.84-1.54c-23.24-19.49-48.18-37.39-75.47-50.77
	c-0.86-0.42-1.7-0.82-2.53-1.23c-46.67-22.86-105.95-35.07-153.35-6.98c-27.82,17.29-42.32,47.76-50.03,78.46
	c-0.21,0.86-0.41,1.69-0.62,2.52c-3.45,13.69-3.45,13.69-3.22,46.21c0.01,0.8,0.01,1.59,0.02,2.37c0.01,2.13,0.04,4.25,0.1,6.38
	c1.78,33.79,16.38,68.95,41.62,91.72c0.51,0.45,1,0.89,1.49,1.33c10.81,9.84,23.61,16.77,37.47,21.31
	c9.26,2.76,18.84,3.31,27.53-1.31c2.63-1.4,5.03-2.6,8-3c2,2,2,2,3.85,3.47c6.38,4.58,11.41,6.3,19.21,5.03
	c6.56-3.35,11.2-7.84,14.15-14.61c0.84-2.02,1.8-3.95,2.79-5.89c0.81,1.1,1.65,2.18,2.5,3.25c4.17,4.78,8.09,7.36,14.47,8.09
	c6.84,0.2,11.61-0.26,16.84-4.97c6.91-7.1,8.56-15.1,8.51-24.83c-0.03-1.44-0.03-1.44-0.06-2.86c-0.02-4.5,0.08-8.92-0.74-13.36
	c-0.53-2.31-0.53-2.31-0.82-4.57c-0.12-1.05-0.12-1.05-0.25-2.07c-0.22-1.86-0.22-1.86-0.44-3.69c2.11-1.69,3.24-3,6-3
	c2.29,9.61,4.42,19.09,10.59,27.06c4.48,4.9,9.07,7.41,15.67,8.22c6.48,0.28,11.28-1.33,16.43-5.4c4.97-6.18,6.79-12.14,6.71-20.03
	c-0.03-0.94-0.06-1.86-0.09-2.78c-0.03-3.36-0.02-6.72-0.31-10.06c-0.34-0.68-0.67-1.34-1-2c3.3-0.55,5.93-1.53,9,0
	c3.24,2.01,6.4,3.7,10,5c10.18,1.08,18.51-0.42,26.89-6.34c0.64-0.49,1.27-0.97,1.89-1.45c1.06-0.81,1.06-0.81,2.1-1.6
	c1.34-1.02,2.69-2.04,4.04-3.04c7.69-5.65,15.23-11.4,22.47-17.62c2.51-2.17,5.04-4.31,7.6-6.42c4.09-3.33,8.18-6.65,12.18-10.09
	c0.96-0.83,1.88-1.63,2.81-2.44c3.31,3.21,6.57,6.47,9.72,9.84c0.64,0.68,1.25,1.35,1.87,2.01c1.3,1.4,2.61,2.81,3.91,4.21
	c3.73,4.07,7.48,8,11.66,11.62c2.26,1.93,4.4,3.86,6.53,5.94c3.67,3.77,7.34,7.49,11.31,10.94c2.11,1.81,4.2,3.62,6.26,5.48
	c9.06,8.24,18.37,16.22,27.99,23.82c0.93,0.73,1.84,1.43,2.75,2.14c13.69,10.65,27.81,20.73,42.83,29.43
	c37.97,21.39,82.67,36.82,126.33,24.99c30.61-8.94,54.63-30.62,70.09-58.18c0.59-1.1,1.17-2.17,1.75-3.23
	c1.72-3.15,3.41-6.32,5.01-9.53C711.09,192.71,714.41,137.87,698.97,91.92z M128,267c-2.58-2.41-4-4.75-5.45-7.98
	c-0.44-1.02-0.44-1.02-0.86-2.02c-5.36-12.48-9.43-25.29-12.06-38.62c-2.93-16.17-5.4-37.14,4.38-51.38c3.86-3.23,7.05-3.55,12-3
	c2.26,1.89,3.4,3.64,5,6.19C144.03,198.26,135.67,238.45,128,267z M273,207c-1.9-3.25-2.97-5.75-3.44-9.5
	c0.52-4.2,1.66-6.33,4.44-9.5h4c0.48,2.72,0.87,5.26,1,8C278.09,200.96,276.89,203.76,273,207z M336.9,185.41
	c-0.65,0.54-1.27,1.07-1.9,1.59c-7.72,6.48-15.47,12.91-23.45,19.06c-0.7,0.53-1.37,1.05-2.05,1.57c-5.11,3.99-10.3,7.32-16.5,9.38
	c-4.97,0.58-8.58,0.48-13-2v-2c3.55-3.92,5.1-7.42,6.46-12.45c1.37-6.47,1.05-12.8-2.46-18.55c-3.38-2.53-5.29-3-9.5-3
	c-4.08,1.17-6.83,2.74-9.5,6c-4.67,7.9-3.56,16.84-1.44,25.38c0.15,0.55,0.29,1.08,0.44,1.62h-4c-1.42-3.8-2.75-6.67-5.19-9.94
	c-3.76-2.76-3.76-2.76-10.81-2.06c-2,1-2,1-3.69,3.62c-1.58,4.07-1.48,6.19-0.31,10.38c2.33,3.65,2.33,3.65,9.19,5.56
	c2.61,0.56,2.61,0.56,4.81,1.44c1.11,3.32,1.16,5.95,1.19,9.42c0,0.84,0,1.65,0,2.46c0.05,3.06,0.07,6.08-0.19,9.12
	c-1.42,4.91-3.75,7.14-8,10c-4.81,0.8-7.98-0.32-12-3c-8.1-8.04-10.15-19.35-11.68-30.25c-0.31-2.34-0.61-4.67-0.92-7.01
	c-0.16-1.15-0.32-2.27-0.47-3.38c-0.4-3.05-0.4-3.05-0.93-5.36c-2.25-1.12-2.25-1.12-7,0c-1.13,3.77-2.32,7.5-3.95,11.09
	c-1.83,3.43-3.26,5.7-7.05,6.91c-2.05-3.47-3.71-5.76-6.81-8.38c-3.73-1.9-6.06-2.01-10.19-1.62c-3.51,1.17-4.79,2.03-7,5
	c-0.45,3.01-0.33,5.78,0.33,8.62c0.06,0.1,0.12,0.21,0.19,0.31c0.03,0.05,0.07,0.09,0.1,0.14c-0.08-0.11,0.01,0.02,0.03,0.04
	c0.07,0.09,0.15,0.17,0.23,0.25c0.17,0.18,0.36,0.33,0.55,0.48c0.09,0.08,0.18,0.16,0.27,0.24c0.04,0.03,0.07,0.06,0.11,0.1
	c0,0,0.18,0.14,0.08,0.07c0.16,0.12,0.31,0.24,0.46,0.37c0,0,0,0,0,0c0.01,0.01,0.03,0.02,0.04,0.03c0.01,0.01,0.02,0.01,0.03,0.02
	c0,0,0,0,0,0c0.01,0.01,0.01,0.01,0.02,0.02c0.06,0.04,0.11,0.08,0.18,0.11c-0.03-0.01-0.06-0.03-0.09-0.04c0,0,0,0,0.01,0.01
	c0.06,0.02,0.11,0.06,0.16,0.09c0.07,0.03,0.14,0.07,0.19,0.13H182c2.77,1.77,4.89,2.97,8.11,3.73c1.09,0.16,2.14,0.31,3.2,0.46
	c1.1,0.16,2.17,0.32,3.24,0.48c0.83,0.11,1.64,0.22,2.45,0.33c1.31,3.96,2.28,7.89,3,12c0.71,10.25,1.23,20.31-5,29
	c-2.96,2.48-4.64,2.96-8.5,3.38c-3.9-0.42-5.51-0.86-8.5-3.38c-7.52-8.72-8.35-20.7-8.26-31.74c0.03-1.21,0.05-2.39,0.08-3.57
	c0.04-3.47,0.08-6.94,0.14-10.42c0.02-0.77,0.03-1.52,0.05-2.27h-8c-0.47,5.53-0.94,11.06-1.43,16.59
	c-0.19,2.14-0.38,4.27-0.57,6.41c-0.79,9.4-0.99,19.19-4.16,28.16c-2.38,5.23-5.49,7.84-10.84,9.84c-2.44-0.32-3.99-0.99-6.11-2.27
	c-0.71-0.52-1.39-1.03-2.08-1.54c-2.12-1.45-2.12-1.45-3.81-3.19c-0.87-2.31-1.08-3.64-0.51-6.06c7.89-20.66,9.74-43.93,9.76-65.87
	c0-0.72,0-1.43,0-2.13c-0.01-14.45-0.1-30.35-8.25-42.94c-3.54-4.4-6.42-6.05-12-7c-5.62-0.09-10.64,1.32-15,5
	c-7.94,8.79-9.37,19.92-9.36,31.37l0.05,3.56c-0.08,27.36,7.41,54.62,20.81,78.45c0.51,0.89,1.01,1.75,1.5,2.61
	c-1.29,1.97-1.29,1.97-3,4c-3.79,2.3-7.98,3.2-12.38,3.38c-17.4-0.74-37.25-12.79-48.86-25.37c-0.6-0.68-1.18-1.35-1.76-2.01
	c-14.56-15.79-23.72-34.02-29.4-54.74c-0.2-0.77-0.4-1.51-0.6-2.26c-5.93-22.29-7.01-49.51-1.97-72.13
	c0.33-1.32,0.65-2.59,0.97-3.87c5.09-21.39,13.11-41.52,27.56-58.38c21.04-22.66,50.57-32.56,81.23-31.8
	c1.09,0.06,2.15,0.12,3.2,0.18c51.05,2.84,97.93,29.03,137.84,59.36c0.73,0.56,1.44,1.1,2.16,1.64
	c8.75,6.65,17.17,13.61,25.43,20.86c1.19,1.05,2.38,2.1,3.57,3.14c6.11,5.21,11.86,10.7,17.52,16.39c0.5,0.51,0.99,1,1.48,1.49
	c6.45,6.48,12.89,12.97,19.22,19.56c0.71,0.74,1.4,1.47,2.09,2.19c3.73,3.86,7.18,7.08,8.69,12.38
	C348.99,175.17,342.96,180.31,336.9,185.41z M193,223c-1.98-0.27-1.98-0.27-4-1c-0.34-1.02-0.67-2.01-1-3c1.98,0.27,1.98,0.27,4,1
	C192.34,221.02,192.67,222.01,193,223z M698,173c-2.97,24.16-9.49,48.01-21.38,69.38c-15.15,26.17-37.12,47.84-66.91,56.27
	c-38.76,10.02-78.81-2.37-112.75-21.53c-0.67-0.38-1.32-0.75-1.96-1.12c-16.64-9.43-32.76-19.95-47.51-32.12
	c-2.36-1.96-4.75-3.87-7.17-5.75c-5.37-4.15-10.65-8.32-15.7-12.88c-2.08-1.93-4.16-3.85-6.31-5.7c-4.39-3.78-8.59-7.7-12.71-11.78
	c-0.77-0.77-1.52-1.52-2.27-2.27c-1.63-1.63-3.27-3.25-4.9-4.88c-2.54-2.54-5.07-5.07-7.62-7.6c-1.67-1.66-3.35-3.33-5.02-4.99
	c-1.21-1.21-1.21-1.21-2.41-2.4c-5.3-5.25-10.1-10.52-14.4-16.63c3.44-2.99,6.88-5.99,10.27-9.05
	c11.61-10.53,23.58-20.6,35.81-30.41c0.66-0.53,1.29-1.04,1.93-1.55c9.66-7.77,19.54-15.18,29.66-22.35
	c0.8-0.56,1.57-1.11,2.34-1.65c18.12-12.83,36.83-24.68,56.62-34.78c2.11-1.07,4.22-2.14,6.31-3.24
	C551.81,44.78,600.22,28.87,645,43c18.76,7.36,31.71,22.25,40.13,40.12c0.3,0.64,0.58,1.26,0.87,1.88
	c12.16,25.91,15.33,56.55,12.4,84.86C698.2,171.44,698.2,171.44,698,173z"/>
</svg>
